<svg width="24" height="22" viewBox="0 0 24 22" fill="none" xmlns="http://www.w3.org/2000/svg">
<path d="M0.0285645 4.54267C0.0285645 3.54242 0.42591 2.58315 1.13319 1.87587C1.84047 1.16859 2.79975 0.77124 3.79999 0.77124H18.2C19.2002 0.77124 20.1595 1.16859 20.8668 1.87587C21.5741 2.58315 21.9714 3.54242 21.9714 4.54267V6.25695H0.0285645V4.54267ZM9.91245 17.2284H3.79999C2.79975 17.2284 1.84047 16.831 1.13319 16.1238C0.42591 15.4165 0.0285645 14.4572 0.0285645 13.457V7.62838H17.1714C16.0051 7.62807 14.8545 7.89823 13.8102 8.41765C12.7659 8.93706 11.8563 9.69158 11.1529 10.6219C10.4494 11.5522 9.97128 12.633 9.75605 13.7793C9.54082 14.9256 9.59436 16.1063 9.91245 17.2284V17.2284ZM23.3428 15.1712C23.3428 16.808 22.6926 18.3777 21.5353 19.5351C20.3779 20.6925 18.8082 21.3427 17.1714 21.3427C15.5347 21.3427 13.9649 20.6925 12.8076 19.5351C11.6502 18.3777 11 16.808 11 15.1712C11 13.5345 11.6502 11.9647 12.8076 10.8074C13.9649 9.65001 15.5347 8.99981 17.1714 8.99981C18.8082 8.99981 20.3779 9.65001 21.5353 10.8074C22.6926 11.9647 23.3428 13.5345 23.3428 15.1712V15.1712ZM17.1714 11.7427C16.9896 11.7427 16.8151 11.8149 16.6865 11.9435C16.558 12.0721 16.4857 12.2465 16.4857 12.4284V15.1712C16.4857 15.3531 16.558 15.5275 16.6865 15.6561C16.8151 15.7847 16.9896 15.857 17.1714 15.857H19.2286C19.4104 15.857 19.5848 15.7847 19.7134 15.6561C19.842 15.5275 19.9143 15.3531 19.9143 15.1712C19.9143 14.9894 19.842 14.815 19.7134 14.6864C19.5848 14.5578 19.4104 14.4855 19.2286 14.4855H17.8571V12.4284C17.8571 12.2465 17.7849 12.0721 17.6563 11.9435C17.5277 11.8149 17.3533 11.7427 17.1714 11.7427Z" fill="black"/>
<path d="M0.0285645 4.54267C0.0285645 3.54242 0.42591 2.58315 1.13319 1.87587C1.84047 1.16859 2.79975 0.77124 3.79999 0.77124H18.2C19.2002 0.77124 20.1595 1.16859 20.8668 1.87587C21.5741 2.58315 21.9714 3.54242 21.9714 4.54267V6.25695H0.0285645V4.54267ZM9.91245 17.2284H3.79999C2.79975 17.2284 1.84047 16.831 1.13319 16.1238C0.42591 15.4165 0.0285645 14.4572 0.0285645 13.457V7.62838H17.1714C16.0051 7.62807 14.8545 7.89823 13.8102 8.41765C12.7659 8.93706 11.8563 9.69158 11.1529 10.6219C10.4494 11.5522 9.97128 12.633 9.75605 13.7793C9.54082 14.9256 9.59436 16.1063 9.91245 17.2284V17.2284ZM23.3428 15.1712C23.3428 16.808 22.6926 18.3777 21.5353 19.5351C20.3779 20.6925 18.8082 21.3427 17.1714 21.3427C15.5347 21.3427 13.9649 20.6925 12.8076 19.5351C11.6502 18.3777 11 16.808 11 15.1712C11 13.5345 11.6502 11.9647 12.8076 10.8074C13.9649 9.65001 15.5347 8.99981 17.1714 8.99981C18.8082 8.99981 20.3779 9.65001 21.5353 10.8074C22.6926 11.9647 23.3428 13.5345 23.3428 15.1712V15.1712ZM17.1714 11.7427C16.9896 11.7427 16.8151 11.8149 16.6865 11.9435C16.558 12.0721 16.4857 12.2465 16.4857 12.4284V15.1712C16.4857 15.3531 16.558 15.5275 16.6865 15.6561C16.8151 15.7847 16.9896 15.857 17.1714 15.857H19.2286C19.4104 15.857 19.5848 15.7847 19.7134 15.6561C19.842 15.5275 19.9143 15.3531 19.9143 15.1712C19.9143 14.9894 19.842 14.815 19.7134 14.6864C19.5848 14.5578 19.4104 14.4855 19.2286 14.4855H17.8571V12.4284C17.8571 12.2465 17.7849 12.0721 17.6563 11.9435C17.5277 11.8149 17.3533 11.7427 17.1714 11.7427Z" fill="url(#paint0_linear_105_2514)"/>
<defs>
<linearGradient id="paint0_linear_105_2514" x1="21.5943" y1="0.771242" x2="-4.0868" y2="10.727" gradientUnits="userSpaceOnUse">
<stop stop-color="#7457A4"/>
<stop offset="1" stop-color="#4C3376"/>
</linearGradient>
</defs>
</svg>
