<svg width="17" height="15" viewBox="0 0 17 15" fill="none" xmlns="http://www.w3.org/2000/svg">
<path d="M11.8734 8.22639C12.4676 8.22639 12.9905 7.92855 13.2599 7.47814L16.0963 2.76343C16.163 2.65331 16.1973 2.52912 16.1956 2.40314C16.194 2.27716 16.1565 2.15376 16.0869 2.04515C16.0172 1.93654 15.9179 1.84648 15.7986 1.78388C15.6794 1.72129 15.5444 1.68833 15.407 1.68827H3.68121L2.93646 0.235352H0.345703V1.68827H1.93027L4.78248 7.20209L3.7129 8.97464C3.13454 9.9481 3.89513 11.1322 5.09939 11.1322H14.6068V9.67931H5.09939L5.9709 8.22639H11.8734ZM4.43388 3.14118H14.0601L11.8734 6.77348H6.31159L4.43388 3.14118ZM5.09939 11.8587C4.22788 11.8587 3.52275 12.5125 3.52275 13.3116C3.52275 14.1107 4.22788 14.7645 5.09939 14.7645C5.9709 14.7645 6.68396 14.1107 6.68396 13.3116C6.68396 12.5125 5.9709 11.8587 5.09939 11.8587ZM13.0222 11.8587C12.1507 11.8587 11.4456 12.5125 11.4456 13.3116C11.4456 14.1107 12.1507 14.7645 13.0222 14.7645C13.8937 14.7645 14.6068 14.1107 14.6068 13.3116C14.6068 12.5125 13.8937 11.8587 13.0222 11.8587Z" fill="white"/>
</svg>
