<svg width="24" height="25" viewBox="0 0 24 25" fill="none" xmlns="http://www.w3.org/2000/svg">
<path d="M7.3 21.5C6.66667 21.5 6.125 21.2707 5.675 20.812C5.225 20.354 5 19.8083 5 19.175V9.9L3.175 5.5H1V3.5H4.525L6.175 7.5H20.95C21.3333 7.5 21.625 7.65833 21.825 7.975C22.025 8.29167 22.0333 8.61667 21.85 8.95L19 14.525C19.85 14.6583 20.5627 15.05 21.138 15.7C21.7127 16.35 22 17.1167 22 18C22 18.9667 21.6627 19.7917 20.988 20.475C20.3127 21.1583 19.4917 21.5 18.525 21.5C17.5417 21.5 16.7127 21.1583 16.038 20.475C15.3627 19.7917 15.025 18.9667 15.025 18C15.025 17.6667 15.0667 17.3583 15.15 17.075C15.2333 16.7917 15.35 16.5167 15.5 16.25L12.225 15.95L9.225 20.45C9.00833 20.7833 8.729 21.0417 8.387 21.225C8.04567 21.4083 7.68333 21.5 7.3 21.5ZM7.325 19.475C7.35833 19.475 7.43333 19.4333 7.55 19.35L9.975 15.75C9.15833 15.6667 8.51667 15.4707 8.05 15.162C7.58333 14.854 7.23333 14.5333 7 14.2V19.2C7 19.2833 7.03333 19.35 7.1 19.4C7.16667 19.45 7.24167 19.475 7.325 19.475ZM18.5 19.5C18.9333 19.5 19.2917 19.354 19.575 19.062C19.8583 18.7707 20 18.4167 20 18C20 17.5667 19.8583 17.2083 19.575 16.925C19.2917 16.6417 18.9333 16.5 18.5 16.5C18.0833 16.5 17.7293 16.6417 17.438 16.925C17.146 17.2083 17 17.5667 17 18C17 18.4167 17.146 18.7707 17.438 19.062C17.7293 19.354 18.0833 19.5 18.5 19.5Z" fill="white"/>
</svg>
