<svg width="10" height="14" viewBox="0 0 10 14" fill="none" xmlns="http://www.w3.org/2000/svg">
<path d="M1.25852 0.000241071C1.05217 -0.00430993 0.84953 0.0556724 0.678778 0.171941C0.508025 0.28821 0.377642 0.455019 0.305755 0.649026C0.233869 0.843034 0.224051 1.05465 0.277666 1.25451C0.331282 1.45438 0.445666 1.63244 0.604918 1.7641L6.68125 6.9839L0.604918 12.2019C0.494756 12.2831 0.402498 12.3861 0.333921 12.5047C0.265345 12.6233 0.221927 12.7549 0.206387 12.8911C0.190848 13.0273 0.203521 13.1652 0.243612 13.2963C0.283704 13.4273 0.350351 13.5487 0.439379 13.6528C0.528408 13.7568 0.637901 13.8412 0.761 13.9008C0.884099 13.9605 1.01815 13.994 1.15477 13.9993C1.29138 14.0045 1.42761 13.9816 1.55493 13.9316C1.68224 13.8817 1.7979 13.8059 1.89466 13.709L8.85151 7.74042C8.96076 7.64693 9.04849 7.53089 9.10864 7.40012C9.1688 7.26934 9.19995 7.127 9.19995 6.98298C9.19995 6.83896 9.1688 6.69662 9.10864 6.56585C9.04849 6.43507 8.96076 6.31892 8.85151 6.22543L1.89466 0.251073C1.71892 0.094546 1.49351 0.00555687 1.25852 1.13715e-05V0.000241071Z" fill="#514A7B"/>
<path d="M1.25852 0.000241071C1.05217 -0.00430993 0.84953 0.0556724 0.678778 0.171941C0.508025 0.28821 0.377642 0.455019 0.305755 0.649026C0.233869 0.843034 0.224051 1.05465 0.277666 1.25451C0.331282 1.45438 0.445666 1.63244 0.604918 1.7641L6.68125 6.9839L0.604918 12.2019C0.494756 12.2831 0.402498 12.3861 0.333921 12.5047C0.265345 12.6233 0.221927 12.7549 0.206387 12.8911C0.190848 13.0273 0.203521 13.1652 0.243612 13.2963C0.283704 13.4273 0.350351 13.5487 0.439379 13.6528C0.528408 13.7568 0.637901 13.8412 0.761 13.9008C0.884099 13.9605 1.01815 13.994 1.15477 13.9993C1.29138 14.0045 1.42761 13.9816 1.55493 13.9316C1.68224 13.8817 1.7979 13.8059 1.89466 13.709L8.85151 7.74042C8.96076 7.64693 9.04849 7.53089 9.10864 7.40012C9.1688 7.26934 9.19995 7.127 9.19995 6.98298C9.19995 6.83896 9.1688 6.69662 9.10864 6.56585C9.04849 6.43507 8.96076 6.31892 8.85151 6.22543L1.89466 0.251073C1.71892 0.094546 1.49351 0.00555687 1.25852 1.13715e-05V0.000241071Z" fill="url(#paint0_linear_105_1950)"/>
<defs>
<linearGradient id="paint0_linear_105_1950" x1="8.52495" y1="8.77888e-07" x2="-2.35262" y2="2.39194" gradientUnits="userSpaceOnUse">
<stop stop-color="#7457A4"/>
<stop offset="1" stop-color="#4C3376"/>
</linearGradient>
</defs>
</svg>
