<svg width="9" height="12" viewBox="0 0 9 12" fill="none" xmlns="http://www.w3.org/2000/svg">
<path d="M1.31022 0.000206632C1.13287 -0.00369422 0.958701 0.0477192 0.81194 0.147378C0.665179 0.247037 0.553115 0.390016 0.491329 0.556308C0.429543 0.722601 0.421104 0.903987 0.467187 1.0753C0.513269 1.24661 0.611582 1.39923 0.748458 1.51209L5.97104 5.9862L0.748458 10.4587C0.653774 10.5283 0.574478 10.6167 0.515537 10.7183C0.456596 10.82 0.419279 10.9327 0.405923 11.0495C0.392566 11.1662 0.403458 11.2845 0.437917 11.3968C0.472376 11.5091 0.529658 11.6132 0.606178 11.7024C0.682698 11.7915 0.776806 11.8639 0.882609 11.915C0.988412 11.9661 1.10363 11.9948 1.22105 11.9994C1.33847 12.0039 1.45556 11.9842 1.56499 11.9414C1.67441 11.8986 1.77382 11.8336 1.85699 11.7506L7.83637 6.63464C7.93027 6.55451 8.00567 6.45505 8.05737 6.34296C8.10908 6.23086 8.13585 6.10886 8.13585 5.98541C8.13585 5.86197 8.10908 5.73996 8.05737 5.62787C8.00567 5.51578 7.93027 5.41622 7.83637 5.33609L1.85699 0.215205C1.70594 0.0810394 1.5122 0.00476303 1.31022 9.74702e-06V0.000206632Z" fill="#115BA4"/>
</svg>
