<svg width="18" height="17" viewBox="0 0 18 17" fill="none" xmlns="http://www.w3.org/2000/svg">
<path d="M9.51107 0.914551V1.98067L13.6821 3.37214L16.712 2.36274L17.24 3.9444L14.7107 4.78779L17.2934 11.8886C16.8267 12.3758 16.266 12.7634 15.6454 13.0279C15.0247 13.2924 14.3568 13.4284 13.6821 13.4277C13.0074 13.4285 12.3396 13.2925 11.7189 13.028C11.0982 12.7634 10.5375 12.3758 10.0708 11.8886L12.6519 4.78779L9.51107 3.74002V15.0961H12.8479V16.7646H4.50581V15.0961H7.84265V3.74002L4.69935 4.78779L7.28206 11.8886C6.81553 12.3759 6.25505 12.7635 5.6345 13.028C5.01394 13.2925 4.34619 13.4285 3.6716 13.4277C2.99689 13.4285 2.32903 13.2925 1.70834 13.028C1.08765 12.7634 0.527018 12.3758 0.0603027 11.8886L2.64135 4.78779L0.113692 3.94524L0.641747 2.36191L3.6716 3.3713L7.84265 1.98067V0.914551H9.51107ZM13.6821 6.83995L12.0487 11.333C12.5473 11.6136 13.11 11.7605 13.6821 11.7593C14.2661 11.7593 14.825 11.6091 15.3155 11.3338L13.6821 6.83911V6.83995ZM3.6716 6.83995L2.03822 11.333C2.53679 11.6136 3.09948 11.7605 3.6716 11.7593C4.25555 11.7593 4.81447 11.6091 5.30498 11.3338L3.6716 6.83911V6.83995Z" fill="#4A4A4A"/>
</svg>
