<svg width="10" height="7" viewBox="0 0 10 7" fill="none" xmlns="http://www.w3.org/2000/svg">
<path d="M3.49961 5.19998L7.92461 0.774975C8.06211 0.637475 8.23711 0.568726 8.44961 0.568726C8.66211 0.568726 8.83711 0.637475 8.97461 0.774975C9.11211 0.912475 9.18086 1.08748 9.18086 1.29998C9.18086 1.51248 9.11211 1.68748 8.97461 1.82498L4.02461 6.77498C3.87461 6.92498 3.69961 6.99998 3.49961 6.99998C3.29961 6.99998 3.12461 6.92498 2.97461 6.77498L1.02461 4.82498C0.887109 4.68748 0.818359 4.51248 0.818359 4.29998C0.818359 4.08748 0.887109 3.91248 1.02461 3.77498C1.16211 3.63748 1.33711 3.56873 1.54961 3.56873C1.76211 3.56873 1.93711 3.63748 2.07461 3.77498L3.49961 5.19998Z" fill="white"/>
</svg>
