<svg width="16" height="15" viewBox="0 0 16 15" fill="none" xmlns="http://www.w3.org/2000/svg">
<path d="M7.88958 12.5467L7.81253 12.6238L7.72777 12.5467C4.06797 9.22594 1.64864 7.03005 1.64864 4.80335C1.64864 3.26238 2.80437 2.10665 4.34534 2.10665C5.53189 2.10665 6.68762 2.87713 7.09597 3.92499H8.52908C8.93744 2.87713 10.0932 2.10665 11.2797 2.10665C12.8207 2.10665 13.9764 3.26238 13.9764 4.80335C13.9764 7.03005 11.5571 9.22594 7.88958 12.5467ZM11.2797 0.565674C9.93907 0.565674 8.65236 1.18977 7.81253 2.16828C6.9727 1.18977 5.68599 0.565674 4.34534 0.565674C1.97224 0.565674 0.107666 2.42255 0.107666 4.80335C0.107666 7.70808 2.72732 10.0889 6.69532 13.6871L7.81253 14.7041L8.92973 13.6871C12.8977 10.0889 15.5174 7.70808 15.5174 4.80335C15.5174 2.42255 13.6528 0.565674 11.2797 0.565674Z" fill="#4A4A4A"/>
</svg>
