<svg width="14" height="13" viewBox="0 0 14 13" fill="none" xmlns="http://www.w3.org/2000/svg">
<path d="M7.01359 0.481152C7.07959 0.310855 7.32055 0.310854 7.38656 0.481152L8.9227 4.44461C8.95108 4.51783 9.01967 4.56766 9.09807 4.57202L13.3422 4.80821C13.5246 4.81836 13.5991 5.04752 13.4575 5.16292L10.1627 7.84866C10.1019 7.89827 10.0757 7.97891 10.0957 8.05482L11.1826 12.1642C11.2293 12.3408 11.0344 12.4824 10.8809 12.3835L7.30846 10.0799C7.24247 10.0373 7.15768 10.0373 7.09169 10.0799L3.51926 12.3835C3.36576 12.4824 3.17082 12.3408 3.21752 12.1642L4.30442 8.05482C4.3245 7.97891 4.29829 7.89827 4.23743 7.84866L0.942654 5.16292C0.801088 5.04752 0.875548 4.81836 1.05791 4.80821L5.30207 4.57202C5.38047 4.56766 5.44907 4.51783 5.47745 4.44461L7.01359 0.481152Z" fill="#D9D9D9"/>
</svg>
