<svg width="20" height="20" viewBox="0 0 20 20" fill="none" xmlns="http://www.w3.org/2000/svg">
<circle cx="10" cy="10" r="10" fill="#115BA4"/>
<circle cx="10" cy="10" r="10" fill="url(#paint0_linear_391_11616)"/>
<g clip-path="url(#clip0_391_11616)">
<path d="M13.9999 8.20616C14.0025 8.08793 13.9682 7.97182 13.9017 7.87398C13.8353 7.77613 13.74 7.70143 13.6291 7.66023C13.5183 7.61904 13.3973 7.61342 13.2831 7.64414C13.1689 7.67486 13.0672 7.7404 12.9919 7.83165L10.0092 11.3134L7.02751 7.83165C6.98111 7.76853 6.92222 7.71567 6.85445 7.67637C6.78668 7.63708 6.7115 7.6122 6.63367 7.6033C6.55584 7.59439 6.47703 7.60165 6.40213 7.62463C6.32724 7.6476 6.25788 7.68579 6.19842 7.7368C6.13897 7.78781 6.09075 7.85055 6.05667 7.92109C6.02259 7.99162 6.00344 8.06844 6.00042 8.14672C5.9974 8.225 6.01053 8.30305 6.03908 8.37601C6.06762 8.44896 6.11092 8.51523 6.16627 8.57067L9.57691 12.5569C9.63033 12.6195 9.69663 12.6698 9.77136 12.7043C9.84609 12.7387 9.92743 12.7566 10.0097 12.7566C10.092 12.7566 10.1734 12.7387 10.2481 12.7043C10.3228 12.6698 10.3892 12.6195 10.4426 12.5569L13.8565 8.57067C13.946 8.46997 13.9968 8.34081 14 8.20616L13.9999 8.20616Z" fill="white"/>
</g>
<defs>
<linearGradient id="paint0_linear_391_11616" x1="20" y1="-1.27868e-06" x2="-2.23355" y2="3.05518" gradientUnits="userSpaceOnUse">
<stop stop-color="#50BAF5"/>
<stop offset="1" stop-color="#115BA4"/>
</linearGradient>
<clipPath id="clip0_391_11616">
<rect width="8" height="8" fill="white" transform="translate(14 6) rotate(90)"/>
</clipPath>
</defs>
</svg>
