<svg width="24" height="24" viewBox="0 0 24 24" fill="none" xmlns="http://www.w3.org/2000/svg">
<path fill-rule="evenodd" clip-rule="evenodd" d="M0.635259 0.635259C0 1.27052 0 2.29296 0 4.33784V19.6621C0 21.707 0 22.7295 0.635259 23.3647C1.27052 24 2.29296 24 4.33784 24H19.6621C21.707 24 22.7295 24 23.3647 23.3647C24 22.7295 24 21.707 24 19.6621V4.33784C24 2.29296 24 1.27052 23.3647 0.635259C22.7295 0 21.707 0 19.6621 0H4.33784C2.29296 0 1.27052 0 0.635259 0.635259ZM12.0514 15.1104L14.7221 19.1605V19.1876H18.7827L15.4579 14.295C16.9568 13.4252 17.8561 11.9302 17.8561 10.109C17.8561 7.09191 15.5124 5.1892 11.9969 5.1892H5.83786V19.1605H9.35339V15.1104H12.0241H12.0514ZM11.9696 11.9846H9.38062V8.2335H11.9696C13.305 8.2335 14.3678 8.94023 14.3678 10.0819C14.3678 11.2507 13.3322 11.9846 11.9696 11.9846Z" fill="black"/>
</svg>
