<svg width="20" height="20" viewBox="0 0 20 20" fill="none" xmlns="http://www.w3.org/2000/svg">
<path d="M19.6248 14.4742L16.7722 13.1482L10.3035 16.1555C10.2093 16.1992 10.1054 16.2221 10 16.2221C9.8947 16.2221 9.79093 16.1992 9.69677 16.1555L3.2276 13.1482L0.375085 14.4742C0.262495 14.5264 0.167703 14.6068 0.101407 14.7064C0.035111 14.8059 0 14.9207 0 15.0378C0 15.1548 0.0351146 15.2696 0.101407 15.3691C0.1677 15.4687 0.262495 15.5491 0.375085 15.6013L9.69669 19.9332C9.79085 19.9771 9.89462 20 9.99996 20C10.1053 20 10.2092 19.9771 10.3034 19.9332L19.6246 15.5998C19.737 15.5476 19.8315 15.4672 19.8975 15.3678C19.9635 15.2684 19.9984 15.1537 19.9984 15.0369C19.9984 14.9201 19.9635 14.8056 19.8975 14.7062C19.8315 14.6068 19.737 14.5264 19.6246 14.474L19.6248 14.4742Z" fill="#52585E"/>
<path d="M19.6246 4.39863L10.3034 0.0667583C10.2092 0.0228362 10.1053 0 9.99996 0C9.89462 0 9.79085 0.0228392 9.69669 0.0667583L0.375085 4.40013C0.262496 4.45224 0.167703 4.53277 0.101407 4.63232C0.0351153 4.73173 0 4.84651 0 4.96363C0 5.08076 0.0351149 5.19539 0.101407 5.29494C0.1677 5.3945 0.262496 5.47487 0.375085 5.52714L9.69669 9.85938C9.79085 9.90316 9.89462 9.92599 9.99996 9.92599C10.1053 9.92599 10.2092 9.90315 10.3034 9.85938L19.6246 5.52601C19.7373 5.47375 19.8321 5.39337 19.8984 5.29382C19.9647 5.19427 19.9998 5.07948 19.9998 4.96236C19.9998 4.84538 19.9647 4.7306 19.8984 4.63105C19.8321 4.53149 19.7373 4.45112 19.6246 4.39885V4.39863Z" fill="#52585E"/>
<path d="M19.6248 9.43707L16.7722 8.11108L10.3035 11.1182C10.2093 11.1621 10.1054 11.185 10 11.185C9.8947 11.185 9.79093 11.1621 9.69677 11.1182L3.2276 8.11108L0.375085 9.43707C0.262495 9.48933 0.167703 9.56971 0.101407 9.66926C0.035111 9.76882 0 9.8836 0 10.0006C0 10.1177 0.0351146 10.2325 0.101407 10.332C0.1677 10.4316 0.262495 10.512 0.375085 10.5642L9.69669 14.8961C9.79085 14.94 9.89462 14.9629 9.99996 14.9629C10.1053 14.9629 10.2092 14.94 10.3034 14.8961L19.6246 10.5627C19.737 10.5103 19.8315 10.4299 19.8975 10.3305C19.9635 10.2311 19.9984 10.1166 19.9984 9.99981C19.9984 9.88298 19.9635 9.76849 19.8975 9.66908C19.8315 9.56968 19.737 9.4893 19.6246 9.43689L19.6248 9.43707Z" fill="#52585E"/>
</svg>
