<svg width="32" height="32" viewBox="0 0 32 32" fill="none" xmlns="http://www.w3.org/2000/svg">
<path d="M15.9997 10.6666V2.66663H7.99967C7.29243 2.66663 6.61415 2.94758 6.11406 3.44767C5.61396 3.94777 5.33301 4.62605 5.33301 5.33329V26.6666C5.33301 27.3739 5.61396 28.0521 6.11406 28.5522C6.61415 29.0523 7.29243 29.3333 7.99967 29.3333H23.9997C24.7069 29.3333 25.3852 29.0523 25.8853 28.5522C26.3854 28.0521 26.6663 27.3739 26.6663 26.6666V13.3333H18.6663C17.9591 13.3333 17.2808 13.0523 16.7807 12.5522C16.2806 12.0521 15.9997 11.3739 15.9997 10.6666ZM9.33301 16.3333C9.33301 16.0681 9.43836 15.8137 9.6259 15.6262C9.81344 15.4386 10.0678 15.3333 10.333 15.3333C10.5982 15.3333 10.8526 15.4386 11.0401 15.6262C11.2277 15.8137 11.333 16.0681 11.333 16.3333C11.333 16.5985 11.2277 16.8529 11.0401 17.0404C10.8526 17.2279 10.5982 17.3333 10.333 17.3333C10.0678 17.3333 9.81344 17.2279 9.6259 17.0404C9.43836 16.8529 9.33301 16.5985 9.33301 16.3333ZM9.33301 20.3333C9.33301 20.0681 9.43836 19.8137 9.6259 19.6262C9.81344 19.4386 10.0678 19.3333 10.333 19.3333C10.5982 19.3333 10.8526 19.4386 11.0401 19.6262C11.2277 19.8137 11.333 20.0681 11.333 20.3333C11.333 20.5985 11.2277 20.8529 11.0401 21.0404C10.8526 21.2279 10.5982 21.3333 10.333 21.3333C10.0678 21.3333 9.81344 21.2279 9.6259 21.0404C9.43836 20.8529 9.33301 20.5985 9.33301 20.3333ZM9.33301 24.3333C9.33301 24.0681 9.43836 23.8137 9.6259 23.6262C9.81344 23.4386 10.0678 23.3333 10.333 23.3333C10.5982 23.3333 10.8526 23.4386 11.0401 23.6262C11.2277 23.8137 11.333 24.0681 11.333 24.3333C11.333 24.5985 11.2277 24.8529 11.0401 25.0404C10.8526 25.2279 10.5982 25.3333 10.333 25.3333C10.0678 25.3333 9.81344 25.2279 9.6259 25.0404C9.43836 24.8529 9.33301 24.5985 9.33301 24.3333ZM13.333 16.3333C13.333 16.0681 13.4384 15.8137 13.6259 15.6262C13.8134 15.4386 14.0678 15.3333 14.333 15.3333H21.6663C21.9316 15.3333 22.1859 15.4386 22.3734 15.6262C22.561 15.8137 22.6663 16.0681 22.6663 16.3333C22.6663 16.5985 22.561 16.8529 22.3734 17.0404C22.1859 17.2279 21.9316 17.3333 21.6663 17.3333H14.333C14.0678 17.3333 13.8134 17.2279 13.6259 17.0404C13.4384 16.8529 13.333 16.5985 13.333 16.3333ZM13.333 20.3333C13.333 20.0681 13.4384 19.8137 13.6259 19.6262C13.8134 19.4386 14.0678 19.3333 14.333 19.3333H21.6663C21.9316 19.3333 22.1859 19.4386 22.3734 19.6262C22.561 19.8137 22.6663 20.0681 22.6663 20.3333C22.6663 20.5985 22.561 20.8529 22.3734 21.0404C22.1859 21.2279 21.9316 21.3333 21.6663 21.3333H14.333C14.0678 21.3333 13.8134 21.2279 13.6259 21.0404C13.4384 20.8529 13.333 20.5985 13.333 20.3333ZM13.333 24.3333C13.333 24.0681 13.4384 23.8137 13.6259 23.6262C13.8134 23.4386 14.0678 23.3333 14.333 23.3333H21.6663C21.9316 23.3333 22.1859 23.4386 22.3734 23.6262C22.561 23.8137 22.6663 24.0681 22.6663 24.3333C22.6663 24.5985 22.561 24.8529 22.3734 25.0404C22.1859 25.2279 21.9316 25.3333 21.6663 25.3333H14.333C14.0678 25.3333 13.8134 25.2279 13.6259 25.0404C13.4384 24.8529 13.333 24.5985 13.333 24.3333ZM17.9997 10.6666V3.33329L25.9997 11.3333H18.6663C18.4895 11.3333 18.32 11.2631 18.1949 11.138C18.0699 11.013 17.9997 10.8434 17.9997 10.6666Z" fill="url(#paint0_linear_411_13009)"/>
<defs>
<linearGradient id="paint0_linear_411_13009" x1="26.6663" y1="2.66662" x2="2.79126" y2="5.29122" gradientUnits="userSpaceOnUse">
<stop stop-color="#50BAF5"/>
<stop offset="1" stop-color="#115BA4"/>
</linearGradient>
</defs>
</svg>
