<svg width="48" height="48" viewBox="0 0 48 48" fill="none" xmlns="http://www.w3.org/2000/svg">
<path d="M40 6H8C5.8 6 4 7.8 4 10V34C4 35.0609 4.42143 36.0783 5.17157 36.8284C5.92172 37.5786 6.93913 38 8 38H16V40C16 41.1 16.9 42 18 42H30C31.1 42 32 41.1 32 40V38H40C42.2 38 44 36.2 44 34V10C44 8.93913 43.5786 7.92172 42.8284 7.17157C42.0783 6.42143 41.0609 6 40 6ZM40 34H8V10H40V34Z" fill="#777777"/>
<path d="M12 16.5H28V19.5H12V16.5ZM33 19.5H36V16.5H33V14H30V22H33V19.5ZM20 24.5H36V27.5H20V24.5ZM15 30H18V22H15V24.5H12V27.5H15V30Z" fill="#777777"/>
</svg>
