<svg width="48" height="49" viewBox="0 0 48 49" fill="none" xmlns="http://www.w3.org/2000/svg">
<path d="M22 42.5V38.5H38V24.3C38 22.3667 37.6333 20.55 36.9 18.85C36.1667 17.15 35.1667 15.6667 33.9 14.4C32.6333 13.1333 31.15 12.1333 29.45 11.4C27.75 10.6667 25.9333 10.3 24 10.3C22.0667 10.3 20.25 10.6667 18.55 11.4C16.85 12.1333 15.3667 13.1333 14.1 14.4C12.8333 15.6667 11.8333 17.15 11.1 18.85C10.3667 20.55 10 22.3667 10 24.3V36.5H8C6.9 36.5 5.95867 36.1087 5.176 35.326C4.392 34.542 4 33.6 4 32.5V28.5C4 27.7333 4.18333 27.058 4.55 26.474C4.91667 25.8913 5.4 25.4167 6 25.05L6.15 22.4C6.45 19.9667 7.142 17.7667 8.226 15.8C9.30867 13.8333 10.6587 12.1667 12.276 10.8C13.892 9.43333 15.7087 8.37467 17.726 7.624C19.742 6.87467 21.8333 6.5 24 6.5C26.2 6.5 28.3087 6.87467 30.326 7.624C32.342 8.37467 34.15 9.44133 35.75 10.824C37.35 12.208 38.692 13.8747 39.776 15.824C40.8587 17.7747 41.55 19.95 41.85 22.35L42 24.95C42.6 25.25 43.0833 25.6913 43.45 26.274C43.8167 26.858 44 27.5 44 28.2V32.8C44 33.5333 43.8167 34.1833 43.45 34.75C43.0833 35.3167 42.6 35.75 42 36.05V38.5C42 39.6 41.6087 40.542 40.826 41.326C40.042 42.1087 39.1 42.5 38 42.5H22ZM18 28.5C17.4333 28.5 16.9587 28.308 16.576 27.924C16.192 27.5413 16 27.0667 16 26.5C16 25.9333 16.192 25.458 16.576 25.074C16.9587 24.6913 17.4333 24.5 18 24.5C18.5667 24.5 19.042 24.6913 19.426 25.074C19.8087 25.458 20 25.9333 20 26.5C20 27.0667 19.8087 27.5413 19.426 27.924C19.042 28.308 18.5667 28.5 18 28.5ZM30 28.5C29.4333 28.5 28.9587 28.308 28.576 27.924C28.192 27.5413 28 27.0667 28 26.5C28 25.9333 28.192 25.458 28.576 25.074C28.9587 24.6913 29.4333 24.5 30 24.5C30.5667 24.5 31.042 24.6913 31.426 25.074C31.8087 25.458 32 25.9333 32 26.5C32 27.0667 31.8087 27.5413 31.426 27.924C31.042 28.308 30.5667 28.5 30 28.5ZM12.05 25.4C11.9167 23.4333 12.192 21.65 12.876 20.05C13.5587 18.45 14.4747 17.0913 15.624 15.974C16.7747 14.858 18.1 14 19.6 13.4C21.1 12.8 22.6 12.5 24.1 12.5C27.1333 12.5 29.7587 13.4587 31.976 15.376C34.192 17.292 35.5333 19.6833 36 22.55C32.8667 22.5167 30.0333 21.6747 27.5 20.024C24.9667 18.3747 23.05 16.2333 21.75 13.6C21.2167 16.3 20.092 18.6913 18.376 20.774C16.6587 22.858 14.55 24.4 12.05 25.4Z" fill="#777777"/>
</svg>
