<svg width="10" height="10" viewBox="0 0 10 10" fill="none" xmlns="http://www.w3.org/2000/svg">
<path d="M5.24462 7.56228V7.12989C5.24462 6.78292 5.33594 6.46263 5.51859 6.16904C5.7045 5.87544 5.97358 5.63923 6.32583 5.46041C6.67808 5.28158 7.10698 5.19217 7.61252 5.19217C8.13111 5.19217 8.56654 5.28025 8.91879 5.45641C9.2743 5.63256 9.54338 5.86744 9.72603 6.16103C9.90868 6.45463 10 6.77758 10 7.12989V7.56228C10 7.90925 9.90704 8.22954 9.72113 8.52313C9.53849 8.81673 9.26941 9.05294 8.91389 9.23176C8.55838 9.41059 8.12459 9.5 7.61252 9.5C7.10046 9.5 6.6683 9.41059 6.31605 9.23176C5.9638 9.05294 5.69635 8.81673 5.5137 8.52313C5.33431 8.22954 5.24462 7.90925 5.24462 7.56228ZM6.94716 7.12989V7.56228C6.94716 7.71441 6.99282 7.86521 7.08415 8.01468C7.17873 8.16148 7.35486 8.23487 7.61252 8.23487C7.88323 8.23487 8.06099 8.16281 8.14579 8.01868C8.23386 7.87456 8.27789 7.72242 8.27789 7.56228V7.12989C8.27789 6.96975 8.23712 6.81495 8.15558 6.66548C8.07404 6.51601 7.89302 6.44128 7.61252 6.44128C7.35486 6.44128 7.17873 6.51601 7.08415 6.66548C6.99282 6.81495 6.94716 6.96975 6.94716 7.12989ZM0 2.87011V2.43772C0 2.08541 0.0929549 1.76246 0.278865 1.46886C0.468036 1.17527 0.738747 0.940391 1.091 0.764235C1.44325 0.588078 1.86888 0.5 2.36791 0.5C2.8865 0.5 3.32192 0.588078 3.67417 0.764235C4.02968 0.940391 4.29876 1.17527 4.48141 1.46886C4.66406 1.76246 4.75538 2.08541 4.75538 2.43772V2.87011C4.75538 3.22242 4.66243 3.54404 4.47652 3.83496C4.29387 4.12589 4.02479 4.3581 3.66928 4.53158C3.31376 4.70507 2.87997 4.79182 2.36791 4.79182C1.85584 4.79182 1.42368 4.70374 1.07143 4.52758C0.719178 4.35142 0.451729 4.11788 0.26908 3.82696C0.0896934 3.53603 0 3.21708 0 2.87011ZM1.72211 2.43772V2.87011C1.72211 3.03025 1.76778 3.18238 1.8591 3.32651C1.95042 3.47064 2.12003 3.5427 2.36791 3.5427C2.63862 3.5427 2.81637 3.47064 2.90117 3.32651C2.98924 3.18238 3.03327 3.03025 3.03327 2.87011V2.43772C3.03327 2.27758 2.9925 2.12278 2.91096 1.97331C2.82942 1.82384 2.6484 1.74911 2.36791 1.74911C2.11024 1.74911 1.93738 1.82651 1.84932 1.98132C1.76451 2.13345 1.72211 2.28559 1.72211 2.43772ZM0.831703 9.09964L7.72016 0.900356H9.10959L2.22113 9.09964H0.831703Z" fill="white"/>
</svg>
