<svg width="9" height="6" viewBox="0 0 9 6" fill="none" xmlns="http://www.w3.org/2000/svg">
<path d="M7.89011 1.14812C7.73408 0.962163 7.46962 0.9496 7.29941 1.12006L4.5 3.924L1.70059 1.12006C1.54457 0.963805 1.30934 0.96134 1.15104 1.10525L1.10989 1.14812C0.953869 1.33408 0.965367 1.62301 1.13558 1.79347L4.21749 4.87994C4.21946 4.88191 4.22144 4.88385 4.22343 4.88577L4.19181 4.85188C4.20936 4.87279 4.22827 4.89151 4.24827 4.90803C4.2557 4.9141 4.26321 4.91987 4.27084 4.92535C4.27856 4.93094 4.28654 4.93625 4.29464 4.94124C4.30204 4.94577 4.30937 4.94998 4.31678 4.95393C4.32554 4.9586 4.33459 4.96299 4.34375 4.96701C4.35186 4.9706 4.36007 4.97389 4.36835 4.97688C4.37656 4.97981 4.38474 4.98246 4.39299 4.98484C4.40214 4.98752 4.41139 4.98982 4.42069 4.99177C4.43024 4.99374 4.43985 4.99538 4.4495 4.99666C4.45651 4.99762 4.46366 4.99836 4.47081 4.9989C4.48066 4.99963 4.49046 5 4.50025 5C4.50984 4.99999 4.51948 4.99962 4.52911 4.99889C4.53634 4.99836 4.54349 4.99762 4.55062 4.99667C4.56015 4.99538 4.56976 4.99374 4.57932 4.99173C4.58861 4.98982 4.59786 4.98752 4.60705 4.98487C4.61526 4.98246 4.62344 4.97981 4.63156 4.97688C4.63993 4.97389 4.64814 4.9706 4.65627 4.96702C4.66541 4.96299 4.67446 4.9586 4.68339 4.95384C4.69063 4.94998 4.69796 4.94577 4.7052 4.94131C4.71346 4.93625 4.72144 4.93094 4.72929 4.92531C4.73679 4.91987 4.7443 4.9141 4.75167 4.90801C4.77173 4.89151 4.79064 4.87279 4.80819 4.85188L4.77657 4.88577C4.77856 4.88385 4.78054 4.88191 4.78251 4.87994L7.86442 1.79347C8.03463 1.62301 8.04613 1.33408 7.89011 1.14812Z" fill="#F47922" stroke="#F47922" stroke-width="0.5"/>
</svg>
