<svg width="10" height="16" viewBox="0 0 10 16" fill="none" xmlns="http://www.w3.org/2000/svg">
<path d="M8.70376 1.21979C9.07567 1.53184 9.1008 2.06077 8.75988 2.40119L3.152 8L8.75988 13.5988C9.07239 13.9109 9.07732 14.3813 8.7895 14.6979L8.70376 14.7802C8.33185 15.0923 7.75398 15.0693 7.41306 14.7288L1.24012 8.56502C1.23618 8.56109 1.23229 8.55713 1.22845 8.55315L1.29624 8.61638C1.25441 8.58129 1.21698 8.54345 1.18395 8.50345C1.17181 8.4886 1.16025 8.47359 1.1493 8.45833C1.13813 8.44289 1.1275 8.42692 1.11752 8.41071C1.10845 8.39593 1.10004 8.38126 1.09213 8.36643C1.0828 8.34893 1.07402 8.33082 1.06597 8.3125C1.0588 8.29628 1.05223 8.27985 1.04624 8.2633C1.04038 8.24688 1.03507 8.23051 1.03032 8.21403C1.02497 8.19572 1.02037 8.17722 1.01646 8.15862C1.01252 8.13952 1.00923 8.12029 1.00668 8.101C1.00477 8.08697 1.00328 8.07268 1.0022 8.05838C1.00073 8.03867 0.999992 8.01908 0.999999 7.99949C1.00001 7.98033 1.00076 7.96104 1.00222 7.94179C1.00328 7.92731 1.00477 7.91302 1.00665 7.89877C1.00923 7.8797 1.01252 7.86048 1.01654 7.84136C1.02037 7.82278 1.02497 7.80428 1.03026 7.78591C1.03507 7.76949 1.04038 7.75312 1.04624 7.73688C1.05223 7.72015 1.0588 7.70372 1.06595 7.68746C1.07402 7.66918 1.0828 7.65107 1.09231 7.63322C1.10004 7.61874 1.10845 7.60407 1.11738 7.58959C1.12751 7.57308 1.13813 7.55711 1.14938 7.54143C1.16025 7.52641 1.17181 7.5114 1.18397 7.49667C1.21698 7.45655 1.25441 7.41871 1.29624 7.38362L1.22845 7.44685C1.23229 7.44287 1.23618 7.43891 1.24012 7.43498L7.41306 1.27115C7.75398 0.930734 8.33185 0.907738 8.70376 1.21979Z" fill="#F47922" stroke="#F47922" stroke-width="2"/>
</svg>
