<svg width="54" height="54" viewBox="0 0 54 54" fill="none" xmlns="http://www.w3.org/2000/svg">
<circle cx="27" cy="27" r="27" fill="#D9D9D9"/>
<circle cx="27" cy="27" r="27" fill="white"/>
<path d="M33.6507 17.8499L34.2607 21.7099L37.7707 23.4999L36.0007 26.9999L37.7807 30.4999L34.2407 32.2899L33.6307 36.1499L29.7407 35.5399L26.9707 38.2999L24.1907 35.4999L20.3307 36.1399L19.7107 32.2499L16.2207 30.4699L18.0007 26.9699L16.2307 23.4999L19.7407 21.6899L20.3507 17.8599L24.2207 18.4999L27.0007 15.6899L29.7707 18.4599L33.6507 17.8499ZM24.5007 21.9999C24.1029 21.9999 23.7213 22.158 23.44 22.4393C23.1587 22.7206 23.0007 23.1021 23.0007 23.4999C23.0007 23.8978 23.1587 24.2793 23.44 24.5606C23.7213 24.8419 24.1029 24.9999 24.5007 24.9999C24.8985 24.9999 25.2801 24.8419 25.5614 24.5606C25.8427 24.2793 26.0007 23.8978 26.0007 23.4999C26.0007 23.1021 25.8427 22.7206 25.5614 22.4393C25.2801 22.158 24.8985 21.9999 24.5007 21.9999ZM29.5007 28.9999C29.1029 28.9999 28.7213 29.158 28.44 29.4393C28.1587 29.7206 28.0007 30.1021 28.0007 30.4999C28.0007 30.8978 28.1587 31.2793 28.44 31.5606C28.7213 31.8419 29.1029 31.9999 29.5007 31.9999C29.8985 31.9999 30.2801 31.8419 30.5614 31.5606C30.8427 31.2793 31.0007 30.8978 31.0007 30.4999C31.0007 30.1021 30.8427 29.7206 30.5614 29.4393C30.2801 29.158 29.8985 28.9999 29.5007 28.9999ZM23.4107 31.9999L32.0007 23.4099L30.5907 21.9999L22.0007 30.5899L23.4107 31.9999Z" fill="white"/>
<path d="M33.6507 17.8499L34.2607 21.7099L37.7707 23.4999L36.0007 26.9999L37.7807 30.4999L34.2407 32.2899L33.6307 36.1499L29.7407 35.5399L26.9707 38.2999L24.1907 35.4999L20.3307 36.1399L19.7107 32.2499L16.2207 30.4699L18.0007 26.9699L16.2307 23.4999L19.7407 21.6899L20.3507 17.8599L24.2207 18.4999L27.0007 15.6899L29.7707 18.4599L33.6507 17.8499ZM24.5007 21.9999C24.1029 21.9999 23.7213 22.158 23.44 22.4393C23.1587 22.7206 23.0007 23.1021 23.0007 23.4999C23.0007 23.8978 23.1587 24.2793 23.44 24.5606C23.7213 24.8419 24.1029 24.9999 24.5007 24.9999C24.8985 24.9999 25.2801 24.8419 25.5614 24.5606C25.8427 24.2793 26.0007 23.8978 26.0007 23.4999C26.0007 23.1021 25.8427 22.7206 25.5614 22.4393C25.2801 22.158 24.8985 21.9999 24.5007 21.9999ZM29.5007 28.9999C29.1029 28.9999 28.7213 29.158 28.44 29.4393C28.1587 29.7206 28.0007 30.1021 28.0007 30.4999C28.0007 30.8978 28.1587 31.2793 28.44 31.5606C28.7213 31.8419 29.1029 31.9999 29.5007 31.9999C29.8985 31.9999 30.2801 31.8419 30.5614 31.5606C30.8427 31.2793 31.0007 30.8978 31.0007 30.4999C31.0007 30.1021 30.8427 29.7206 30.5614 29.4393C30.2801 29.158 29.8985 28.9999 29.5007 28.9999ZM23.4107 31.9999L32.0007 23.4099L30.5907 21.9999L22.0007 30.5899L23.4107 31.9999Z" fill="url(#paint0_radial_490_14270)"/>
<defs>
<radialGradient id="paint0_radial_490_14270" cx="0" cy="0" r="1" gradientUnits="userSpaceOnUse" gradientTransform="translate(32.274 26.9949) rotate(131.745) scale(19.4366 12.6431)">
<stop stop-color="#9950F5"/>
<stop offset="1" stop-color="#41258F"/>
</radialGradient>
</defs>
</svg>
