<svg width="25" height="24" viewBox="0 0 25 24" fill="none" xmlns="http://www.w3.org/2000/svg">
<g clip-path="url(#clip0_391_10947)">
<path d="M23.1927 11.6867C20.946 7.53335 17.006 5.02002 12.646 5.02002C8.28603 5.02002 4.33936 7.53335 2.11269 11.6867L1.92603 12L2.09936 12.32C4.34603 16.4734 8.28603 18.9867 12.646 18.9867C17.006 18.9867 20.9527 16.5067 23.1927 12.32L23.366 12L23.1927 11.6867ZM12.646 17.62C8.89269 17.62 5.44603 15.5267 3.44603 12C5.44603 8.47335 8.89269 6.38002 12.646 6.38002C16.3994 6.38002 19.806 8.48002 21.8394 12C19.806 15.5267 16.3927 17.62 12.646 17.62Z" fill="white"/>
<path d="M12.8388 7.44666C11.9349 7.45325 11.0532 7.72757 10.3051 8.23498C9.55696 8.74238 8.976 9.4601 8.63556 10.2975C8.29513 11.1349 8.21048 12.0544 8.39232 12.9398C8.57415 13.8253 9.01432 14.637 9.65721 15.2725C10.3001 15.9079 11.1169 16.3386 12.0044 16.5101C12.8919 16.6816 13.8104 16.5863 14.6438 16.2361C15.4771 15.886 16.188 15.2967 16.6867 14.5427C17.1853 13.7888 17.4494 12.9039 17.4455 12C17.4428 11.3983 17.3215 10.803 17.0884 10.2483C16.8553 9.69353 16.5151 9.19025 16.0871 8.76726C15.6592 8.34427 15.152 8.00988 14.5945 7.78327C14.0371 7.55665 13.4405 7.44226 12.8388 7.44666ZM12.8388 15.26C12.2003 15.2534 11.578 15.0583 11.05 14.6992C10.522 14.3401 10.1119 13.833 9.87121 13.2415C9.63051 12.6501 9.56992 12.0008 9.69706 11.375C9.8242 10.7493 10.1334 10.1751 10.5858 9.72446C11.0383 9.27388 11.6137 8.96702 12.24 8.84243C12.8663 8.71785 13.5154 8.78108 14.1058 9.0242C14.6962 9.26732 15.2017 9.67949 15.5586 10.2089C15.9156 10.7384 16.1081 11.3615 16.1121 12C16.1139 12.4297 16.0303 12.8555 15.8663 13.2527C15.7023 13.6499 15.461 14.0106 15.1565 14.3139C14.852 14.6171 14.4904 14.8569 14.0925 15.0193C13.6947 15.1817 13.2685 15.2635 12.8388 15.26Z" fill="white"/>
</g>
<defs>
<clipPath id="clip0_391_10947">
<rect width="24" height="24" fill="white" transform="translate(0.779297)"/>
</clipPath>
</defs>
</svg>
