<svg width="14" height="14" viewBox="0 0 14 14" fill="none" xmlns="http://www.w3.org/2000/svg">
<path d="M6.18329 8.05002L4.91454 6.78127C4.8076 6.67433 4.67635 6.62085 4.52079 6.62085C4.36524 6.62085 4.22913 6.67919 4.11246 6.79585C4.00551 6.9028 3.95204 7.03891 3.95204 7.20419C3.95204 7.36946 4.00551 7.50558 4.11246 7.61252L5.77496 9.27502C5.8819 9.38196 6.01801 9.43544 6.18329 9.43544C6.34857 9.43544 6.48468 9.38196 6.59163 9.27502L9.90204 5.9646C10.009 5.85766 10.0625 5.72641 10.0625 5.57085C10.0625 5.4153 10.0041 5.27919 9.88746 5.16252C9.78051 5.05558 9.6444 5.0021 9.47913 5.0021C9.31385 5.0021 9.17774 5.05558 9.07079 5.16252L6.18329 8.05002ZM6.99996 12.8334C6.19301 12.8334 5.43468 12.6801 4.72496 12.3737C4.01524 12.0676 3.39788 11.6521 2.87288 11.1271C2.34788 10.6021 1.93235 9.98474 1.62629 9.27502C1.31985 8.5653 1.16663 7.80696 1.16663 7.00002C1.16663 6.19308 1.31985 5.43474 1.62629 4.72502C1.93235 4.0153 2.34788 3.39794 2.87288 2.87294C3.39788 2.34794 4.01524 1.93221 4.72496 1.62577C5.43468 1.31971 6.19301 1.16669 6.99996 1.16669C7.8069 1.16669 8.56524 1.31971 9.27496 1.62577C9.98468 1.93221 10.602 2.34794 11.127 2.87294C11.652 3.39794 12.0676 4.0153 12.3736 4.72502C12.6801 5.43474 12.8333 6.19308 12.8333 7.00002C12.8333 7.80696 12.6801 8.5653 12.3736 9.27502C12.0676 9.98474 11.652 10.6021 11.127 11.1271C10.602 11.6521 9.98468 12.0676 9.27496 12.3737C8.56524 12.6801 7.8069 12.8334 6.99996 12.8334Z" fill="#4ECB71"/>
</svg>
