<svg width="22" height="22" viewBox="0 0 22 22" fill="none" xmlns="http://www.w3.org/2000/svg">
<path d="M18.7905 2.49023H18.1473V18.2941C18.1473 19.344 17.2926 20.1986 16.2427 20.1986H9.72495H4.54199V20.7845C4.54199 21.4554 5.08648 21.9998 5.75732 21.9998H12.2728H18.7882C19.4591 21.9998 20.0035 21.4554 20.0035 20.7845V3.70556C20.0036 3.03472 19.4614 2.49023 18.7905 2.49023Z" fill="#A0A0A0"/>
<path d="M9.72458 19.5096H16.24C16.9109 19.5096 17.4554 18.9651 17.4554 18.2943V2.49039V1.21533C17.4554 0.544486 16.9109 0 16.24 0H9.72458H7.55812V0.402047C7.5627 0.4434 7.56502 0.487051 7.56502 0.530702V3.17962V3.85965C7.56502 4.80388 6.79768 5.57122 5.85345 5.57122H5.17341H2.5245C2.49004 5.57122 2.45328 5.56892 2.41882 5.56663H1.99609V18.2943C1.99609 18.9651 2.54058 19.5096 3.21142 19.5096H4.54392H9.72458ZM9.9704 15.3789H5.72249C5.40545 15.3789 5.14814 15.1215 5.14814 14.8045C5.14814 14.4874 5.40545 14.2302 5.72249 14.2302H9.9727C10.2897 14.2302 10.5471 14.4874 10.5471 14.8045C10.5471 15.1215 10.2874 15.3789 9.9704 15.3789ZM14.2206 12.4474H5.72249C5.40545 12.4474 5.14814 12.1901 5.14814 11.873C5.14814 11.556 5.40545 11.2987 5.72249 11.2987H14.2206C14.5377 11.2987 14.795 11.556 14.795 11.873C14.795 12.1901 14.5377 12.4474 14.2206 12.4474ZM5.72249 8.18567H14.2206C14.5377 8.18567 14.795 8.44298 14.795 8.76003C14.795 9.07707 14.5377 9.33438 14.2206 9.33438H5.72249C5.40545 9.33438 5.14814 9.07707 5.14814 8.76003C5.14814 8.44298 5.40545 8.18567 5.72249 8.18567Z" fill="#A0A0A0"/>
<path d="M2.52431 4.88205H5.85325C5.85555 4.88205 5.86015 4.88205 5.86244 4.88205C6.41842 4.87746 6.86871 4.42716 6.8733 3.87119C6.8733 3.86889 6.8733 3.8643 6.8733 3.862V0.530755C6.8733 0.222902 6.62059 0.0184326 6.35871 0.0184326C6.23235 0.0184326 6.10599 0.0643808 6.00031 0.170062L2.16131 4.00903C1.83968 4.33067 2.06712 4.88205 2.52431 4.88205Z" fill="#A0A0A0"/>
</svg>
