<svg width="22" height="22" viewBox="0 0 22 22" fill="none" xmlns="http://www.w3.org/2000/svg">
<path d="M10.9676 0C6.57423 0 3 3.57423 3 7.96752C3 13.4197 10.1302 21.4239 10.4338 21.762C10.7189 22.0796 11.2167 22.079 11.5014 21.762C11.8049 21.4239 18.9351 13.4197 18.9351 7.96752C18.935 3.57423 15.3609 0 10.9676 0ZM10.9676 11.9762C8.75717 11.9762 6.95893 10.1779 6.95893 7.96752C6.95893 5.75712 8.75721 3.95888 10.9676 3.95888C13.1779 3.95888 14.9762 5.75717 14.9762 7.96757C14.9762 10.178 13.1779 11.9762 10.9676 11.9762Z" fill="#115BA4"/>
<path d="M10.9676 0C6.57423 0 3 3.57423 3 7.96752C3 13.4197 10.1302 21.4239 10.4338 21.762C10.7189 22.0796 11.2167 22.079 11.5014 21.762C11.8049 21.4239 18.9351 13.4197 18.9351 7.96752C18.935 3.57423 15.3609 0 10.9676 0ZM10.9676 11.9762C8.75717 11.9762 6.95893 10.1779 6.95893 7.96752C6.95893 5.75712 8.75721 3.95888 10.9676 3.95888C13.1779 3.95888 14.9762 5.75717 14.9762 7.96757C14.9762 10.178 13.1779 11.9762 10.9676 11.9762Z" fill="url(#paint0_linear_391_11494)"/>
<defs>
<linearGradient id="paint0_linear_391_11494" x1="18.9351" y1="-1.40655e-06" x2="1.06296" y2="1.77885" gradientUnits="userSpaceOnUse">
<stop stop-color="#50BAF5"/>
<stop offset="1" stop-color="#115BA4"/>
</linearGradient>
</defs>
</svg>
