<svg width="32" height="32" viewBox="0 0 32 32" fill="none" xmlns="http://www.w3.org/2000/svg">
<g clip-path="url(#clip0_411_13002)">
<path d="M5.33366 16H26.667V10.6667H5.33366V16ZM25.3337 29.3334V25.3334H21.3337V22.6667H25.3337V18.6667H28.0003V22.6667H32.0003V25.3334H28.0003V29.3334H25.3337ZM5.33366 26.6667C4.60033 26.6667 3.97277 26.4058 3.45099 25.884C2.92833 25.3614 2.66699 24.7334 2.66699 24V8.00004C2.66699 7.26671 2.92833 6.63915 3.45099 6.11737C3.97277 5.59471 4.60033 5.33337 5.33366 5.33337H26.667C27.4003 5.33337 28.0283 5.59471 28.551 6.11737C29.0728 6.63915 29.3337 7.26671 29.3337 8.00004V16H25.3337C23.4892 16 21.9172 16.6498 20.6177 17.9494C19.3172 19.2498 18.667 20.8223 18.667 22.6667V26.6667H5.33366Z" fill="#699BF7"/>
<path d="M5.33366 16H26.667V10.6667H5.33366V16ZM25.3337 29.3334V25.3334H21.3337V22.6667H25.3337V18.6667H28.0003V22.6667H32.0003V25.3334H28.0003V29.3334H25.3337ZM5.33366 26.6667C4.60033 26.6667 3.97277 26.4058 3.45099 25.884C2.92833 25.3614 2.66699 24.7334 2.66699 24V8.00004C2.66699 7.26671 2.92833 6.63915 3.45099 6.11737C3.97277 5.59471 4.60033 5.33337 5.33366 5.33337H26.667C27.4003 5.33337 28.0283 5.59471 28.551 6.11737C29.0728 6.63915 29.3337 7.26671 29.3337 8.00004V16H25.3337C23.4892 16 21.9172 16.6498 20.6177 17.9494C19.3172 19.2498 18.667 20.8223 18.667 22.6667V26.6667H5.33366Z" fill="url(#paint0_linear_411_13002)"/>
</g>
<defs>
<linearGradient id="paint0_linear_411_13002" x1="32.0003" y1="5.33337" x2="-0.313162" y2="10.7604" gradientUnits="userSpaceOnUse">
<stop stop-color="#50BAF5"/>
<stop offset="1" stop-color="#115BA4"/>
</linearGradient>
<clipPath id="clip0_411_13002">
<rect width="32" height="32" fill="white"/>
</clipPath>
</defs>
</svg>
