<svg width="75" height="75" viewBox="0 0 75 75" fill="none" xmlns="http://www.w3.org/2000/svg">
<circle cx="37.5" cy="37.5" r="37.5" fill="#D9D9D9"/>
<circle cx="37.5" cy="37.5" r="37.5" fill="url(#paint0_linear_391_10674)"/>
<path d="M47.9751 24.275L48.8901 30.065L54.1551 32.75L51.5001 38L54.1701 43.25L48.8601 45.935L47.9451 51.725L42.1101 50.81L37.9551 54.95L33.7851 50.75L27.9951 51.71L27.0651 45.875L21.8301 43.205L24.5001 37.955L21.8451 32.75L27.1101 30.035L28.0251 24.29L33.8301 25.25L38.0001 21.035L42.1551 25.19L47.9751 24.275ZM34.2501 30.5C33.6533 30.5 33.081 30.7371 32.6591 31.159C32.2371 31.581 32.0001 32.1533 32.0001 32.75C32.0001 33.3468 32.2371 33.9191 32.6591 34.341C33.081 34.763 33.6533 35 34.2501 35C34.8468 35 35.4191 34.763 35.8411 34.341C36.263 33.9191 36.5001 33.3468 36.5001 32.75C36.5001 32.1533 36.263 31.581 35.8411 31.159C35.4191 30.7371 34.8468 30.5 34.2501 30.5ZM41.7501 41C41.1533 41 40.581 41.2371 40.1591 41.659C39.7371 42.081 39.5001 42.6533 39.5001 43.25C39.5001 43.8468 39.7371 44.4191 40.1591 44.841C40.581 45.263 41.1533 45.5 41.7501 45.5C42.3468 45.5 42.9191 45.263 43.3411 44.841C43.763 44.4191 44.0001 43.8468 44.0001 43.25C44.0001 42.6533 43.763 42.081 43.3411 41.659C42.9191 41.2371 42.3468 41 41.7501 41ZM32.6151 45.5L45.5001 32.615L43.3851 30.5L30.5001 43.385L32.6151 45.5Z" fill="white"/>
<defs>
<linearGradient id="paint0_linear_391_10674" x1="60.4568" y1="-25.2786" x2="19.1594" y2="94.4543" gradientUnits="userSpaceOnUse">
<stop stop-color="#50BAF5"/>
<stop offset="1" stop-color="#115BA4"/>
</linearGradient>
</defs>
</svg>
