<svg width="10" height="10" viewBox="0 0 10 10" fill="none" xmlns="http://www.w3.org/2000/svg">
<path d="M4.81352 0.981152C4.87952 0.810854 5.12048 0.810855 5.18648 0.981152L6.21713 3.64036C6.24551 3.71358 6.3141 3.76342 6.3925 3.76778L9.24005 3.92624C9.42241 3.93639 9.49687 4.16556 9.35531 4.28096L7.14473 6.0829C7.08387 6.13252 7.05767 6.21315 7.07775 6.28906L7.80698 9.04621C7.85368 9.22278 7.65874 9.36441 7.50524 9.26544L5.10839 7.71989C5.04239 7.67734 4.95761 7.67734 4.89161 7.71989L2.49476 9.26544C2.34126 9.36442 2.14632 9.22278 2.19302 9.04621L2.92225 6.28906C2.94233 6.21315 2.91613 6.13252 2.85527 6.0829L0.644694 4.28096C0.503127 4.16556 0.577588 3.93639 0.759947 3.92624L3.6075 3.76778C3.6859 3.76342 3.75449 3.71358 3.78287 3.64036L4.81352 0.981152Z" fill="#D9D9D9"/>
</svg>
