<svg width="22" height="22" viewBox="0 0 22 22" fill="none" xmlns="http://www.w3.org/2000/svg">
<path d="M0.000187373 6.02606V8.65138C0.000187373 9.31992 0.595656 9.86179 1.33033 9.86179H10.1914L10.1912 4.81543H1.33014C0.595469 4.81543 0 5.3573 0 6.02584L0.000187373 6.02606Z" fill="#514A7B"/>
<path d="M0.000187373 6.02606V8.65138C0.000187373 9.31992 0.595656 9.86179 1.33033 9.86179H10.1914L10.1912 4.81543H1.33014C0.595469 4.81543 0 5.3573 0 6.02584L0.000187373 6.02606Z" fill="url(#paint0_linear_105_2458)"/>
<path d="M20.6701 4.81567H11.8091V9.86204H20.6701C21.4048 9.86204 22.0003 9.32017 22.0003 8.65163V6.0263C22.0001 5.35776 21.4046 4.81589 20.6699 4.81589L20.6701 4.81567Z" fill="#514A7B"/>
<path d="M20.6701 4.81567H11.8091V9.86204H20.6701C21.4048 9.86204 22.0003 9.32017 22.0003 8.65163V6.0263C22.0001 5.35776 21.4046 4.81589 20.6699 4.81589L20.6701 4.81567Z" fill="url(#paint1_linear_105_2458)"/>
<path d="M1.23633 21.2159C1.23633 21.649 1.62213 22.0001 2.09806 22.0001H10.1911L10.191 10.7559H1.23638L1.23633 21.2159Z" fill="#514A7B"/>
<path d="M1.23633 21.2159C1.23633 21.649 1.62213 22.0001 2.09806 22.0001H10.1911L10.191 10.7559H1.23638L1.23633 21.2159Z" fill="url(#paint2_linear_105_2458)"/>
<path d="M11.8091 21.9998H19.9022C20.3781 21.9998 20.7639 21.6487 20.7639 21.2156L20.7637 10.7554H11.8091L11.8091 21.9998Z" fill="#514A7B"/>
<path d="M11.8091 21.9998H19.9022C20.3781 21.9998 20.7639 21.6487 20.7639 21.2156L20.7637 10.7554H11.8091L11.8091 21.9998Z" fill="url(#paint3_linear_105_2458)"/>
<path d="M5.32989 3.96358C5.60871 4.1051 6.17571 4.293 7.87424 4.293C8.81037 4.293 9.63872 4.23486 9.6734 4.2323C9.86096 4.21917 10.0288 4.12113 10.1205 3.97143C10.2121 3.82189 10.2153 3.64047 10.1291 3.48822C9.87258 3.035 8.54391 0.750062 7.59358 0.268037C7.24787 0.0925858 6.85704 0 6.46317 0C5.62 0 4.8413 0.416036 4.43113 1.08579C3.80717 2.10493 4.21021 3.39583 5.32994 3.96363L5.32989 3.96358ZM5.4129 1.58366C5.62482 1.23753 6.02732 1.02267 6.46315 1.02267C6.66589 1.02267 6.8675 1.07058 7.04605 1.16129C7.39475 1.33828 8.10172 2.28187 8.71124 3.25513C8.45904 3.26366 8.17103 3.2698 7.87388 3.2698C6.3865 3.2698 5.96942 3.11685 5.87665 3.06979C5.29898 2.77686 5.09042 2.11002 5.4129 1.58365V1.58366Z" fill="#514A7B"/>
<path d="M5.32989 3.96358C5.60871 4.1051 6.17571 4.293 7.87424 4.293C8.81037 4.293 9.63872 4.23486 9.6734 4.2323C9.86096 4.21917 10.0288 4.12113 10.1205 3.97143C10.2121 3.82189 10.2153 3.64047 10.1291 3.48822C9.87258 3.035 8.54391 0.750062 7.59358 0.268037C7.24787 0.0925858 6.85704 0 6.46317 0C5.62 0 4.8413 0.416036 4.43113 1.08579C3.80717 2.10493 4.21021 3.39583 5.32994 3.96363L5.32989 3.96358ZM5.4129 1.58366C5.62482 1.23753 6.02732 1.02267 6.46315 1.02267C6.66589 1.02267 6.8675 1.07058 7.04605 1.16129C7.39475 1.33828 8.10172 2.28187 8.71124 3.25513C8.45904 3.26366 8.17103 3.2698 7.87388 3.2698C6.3865 3.2698 5.96942 3.11685 5.87665 3.06979C5.29898 2.77686 5.09042 2.11002 5.4129 1.58365V1.58366Z" fill="url(#paint4_linear_105_2458)"/>
<path d="M12.3272 4.23253C12.362 4.23491 13.1902 4.29323 14.1263 4.29323C15.8249 4.29323 16.3918 4.10533 16.6707 3.9638C17.7902 3.39601 18.1935 2.1051 17.5695 1.08597C17.1593 0.416027 16.3806 0 15.5374 0C15.1436 0 14.7527 0.0925859 14.407 0.267866C13.4567 0.749892 12.128 3.03488 11.8715 3.48805C11.7853 3.64031 11.7885 3.82173 11.8801 3.97126C11.9718 4.12113 12.1397 4.219 12.3272 4.23247L12.3272 4.23253ZM14.9544 1.16136C15.1329 1.07065 15.3347 1.02274 15.5373 1.02274C15.9733 1.02274 16.3756 1.23758 16.5875 1.58373C16.9098 2.1101 16.7016 2.77659 16.1234 3.07023C16.031 3.11711 15.6135 3.27023 14.1262 3.27023C13.829 3.27023 13.5414 3.26392 13.2888 3.25557C13.8987 2.28195 14.6056 1.33837 14.9544 1.16137L14.9544 1.16136Z" fill="#514A7B"/>
<path d="M12.3272 4.23253C12.362 4.23491 13.1902 4.29323 14.1263 4.29323C15.8249 4.29323 16.3918 4.10533 16.6707 3.9638C17.7902 3.39601 18.1935 2.1051 17.5695 1.08597C17.1593 0.416027 16.3806 0 15.5374 0C15.1436 0 14.7527 0.0925859 14.407 0.267866C13.4567 0.749892 12.128 3.03488 11.8715 3.48805C11.7853 3.64031 11.7885 3.82173 11.8801 3.97126C11.9718 4.12113 12.1397 4.219 12.3272 4.23247L12.3272 4.23253ZM14.9544 1.16136C15.1329 1.07065 15.3347 1.02274 15.5373 1.02274C15.9733 1.02274 16.3756 1.23758 16.5875 1.58373C16.9098 2.1101 16.7016 2.77659 16.1234 3.07023C16.031 3.11711 15.6135 3.27023 14.1262 3.27023C13.829 3.27023 13.5414 3.26392 13.2888 3.25557C13.8987 2.28195 14.6056 1.33837 14.9544 1.16137L14.9544 1.16136Z" fill="url(#paint5_linear_105_2458)"/>
<defs>
<linearGradient id="paint0_linear_105_2458" x1="2.58093" y1="6.23759" x2="9.3376" y2="10.9637" gradientUnits="userSpaceOnUse">
<stop stop-color="#F47922"/>
<stop offset="1" stop-color="#FF964B"/>
</linearGradient>
<linearGradient id="paint1_linear_105_2458" x1="14.39" y1="6.23783" x2="21.1466" y2="10.9638" gradientUnits="userSpaceOnUse">
<stop stop-color="#F47922"/>
<stop offset="1" stop-color="#FF964B"/>
</linearGradient>
<linearGradient id="paint2_linear_105_2458" x1="3.50411" y1="13.9247" x2="11.7205" y2="16.191" gradientUnits="userSpaceOnUse">
<stop stop-color="#F47922"/>
<stop offset="1" stop-color="#FF964B"/>
</linearGradient>
<linearGradient id="paint3_linear_105_2458" x1="14.0769" y1="13.9243" x2="22.2933" y2="16.1906" gradientUnits="userSpaceOnUse">
<stop stop-color="#F47922"/>
<stop offset="1" stop-color="#FF964B"/>
</linearGradient>
<linearGradient id="paint4_linear_105_2458" x1="5.67063" y1="1.20985" x2="10.4968" y2="3.5671" gradientUnits="userSpaceOnUse">
<stop stop-color="#F47922"/>
<stop offset="1" stop-color="#FF964B"/>
</linearGradient>
<linearGradient id="paint5_linear_105_2458" x1="13.3423" y1="1.20991" x2="18.1685" y2="3.56706" gradientUnits="userSpaceOnUse">
<stop stop-color="#F47922"/>
<stop offset="1" stop-color="#FF964B"/>
</linearGradient>
</defs>
</svg>
