<svg width="22" height="22" viewBox="0 0 22 22" fill="none" xmlns="http://www.w3.org/2000/svg">
<path d="M11 0C4.92479 0 0 4.92495 0 11C0 17.0752 4.92473 22 11 22C17.0752 22 22.0005 17.0753 22.0005 11C22.0001 4.92479 17.0754 0 11 0ZM6.06422 10.3217C6.22847 10.1294 6.51679 10.1075 6.70846 10.2709L10.4236 13.4449V4.20181C10.4236 3.94939 10.628 3.74499 10.8804 3.74499C11.1328 3.74499 11.3372 3.94939 11.3372 4.20181V13.3372L14.396 10.2948C14.5749 10.1165 14.8641 10.1176 15.0421 10.2967C15.22 10.4756 15.2193 10.7648 15.0402 10.9428L11.2023 14.7604C11.1137 14.8488 10.997 14.8934 10.8799 14.8934C10.7746 14.8934 10.6692 14.857 10.5833 14.7839L6.1148 10.9664C5.92336 10.8019 5.90041 10.5136 6.06423 10.3216L6.06422 10.3217ZM16.2739 16.9806H5.48765C5.23523 16.9806 5.03083 16.7762 5.03083 16.5237C5.03083 16.2713 5.23523 16.0669 5.48765 16.0669H16.2739C16.5263 16.0669 16.7307 16.2713 16.7307 16.5237C16.7309 16.7762 16.5261 16.9806 16.2739 16.9806Z" fill="#115BA4"/>
<path d="M11 0C4.92479 0 0 4.92495 0 11C0 17.0752 4.92473 22 11 22C17.0752 22 22.0005 17.0753 22.0005 11C22.0001 4.92479 17.0754 0 11 0ZM6.06422 10.3217C6.22847 10.1294 6.51679 10.1075 6.70846 10.2709L10.4236 13.4449V4.20181C10.4236 3.94939 10.628 3.74499 10.8804 3.74499C11.1328 3.74499 11.3372 3.94939 11.3372 4.20181V13.3372L14.396 10.2948C14.5749 10.1165 14.8641 10.1176 15.0421 10.2967C15.22 10.4756 15.2193 10.7648 15.0402 10.9428L11.2023 14.7604C11.1137 14.8488 10.997 14.8934 10.8799 14.8934C10.7746 14.8934 10.6692 14.857 10.5833 14.7839L6.1148 10.9664C5.92336 10.8019 5.90041 10.5136 6.06423 10.3216L6.06422 10.3217ZM16.2739 16.9806H5.48765C5.23523 16.9806 5.03083 16.7762 5.03083 16.5237C5.03083 16.2713 5.23523 16.0669 5.48765 16.0669H16.2739C16.5263 16.0669 16.7307 16.2713 16.7307 16.5237C16.7309 16.7762 16.5261 16.9806 16.2739 16.9806Z" fill="url(#paint0_linear_391_11477)"/>
<defs>
<linearGradient id="paint0_linear_391_11477" x1="22.0005" y1="-1.40655e-06" x2="-2.45695" y2="3.36086" gradientUnits="userSpaceOnUse">
<stop stop-color="#50BAF5"/>
<stop offset="1" stop-color="#115BA4"/>
</linearGradient>
</defs>
</svg>
