<svg width="18" height="19" viewBox="0 0 18 19" fill="none" xmlns="http://www.w3.org/2000/svg">
<path d="M7.95 10.85L6.31875 9.21875C6.18125 9.08125 6.0125 9.0125 5.8125 9.0125C5.6125 9.0125 5.4375 9.0875 5.2875 9.2375C5.15 9.375 5.08125 9.55 5.08125 9.7625C5.08125 9.975 5.15 10.15 5.2875 10.2875L7.425 12.425C7.5625 12.5625 7.7375 12.6312 7.95 12.6312C8.1625 12.6312 8.3375 12.5625 8.475 12.425L12.7313 8.16875C12.8688 8.03125 12.9375 7.8625 12.9375 7.6625C12.9375 7.4625 12.8625 7.2875 12.7125 7.1375C12.575 7 12.4 6.93125 12.1875 6.93125C11.975 6.93125 11.8 7 11.6625 7.1375L7.95 10.85ZM9 17C7.9625 17 6.9875 16.803 6.075 16.409C5.1625 16.0155 4.36875 15.4813 3.69375 14.8063C3.01875 14.1313 2.4845 13.3375 2.091 12.425C1.697 11.5125 1.5 10.5375 1.5 9.5C1.5 8.4625 1.697 7.4875 2.091 6.575C2.4845 5.6625 3.01875 4.86875 3.69375 4.19375C4.36875 3.51875 5.1625 2.98425 6.075 2.59025C6.9875 2.19675 7.9625 2 9 2C10.0375 2 11.0125 2.19675 11.925 2.59025C12.8375 2.98425 13.6313 3.51875 14.3063 4.19375C14.9813 4.86875 15.5155 5.6625 15.909 6.575C16.303 7.4875 16.5 8.4625 16.5 9.5C16.5 10.5375 16.303 11.5125 15.909 12.425C15.5155 13.3375 14.9813 14.1313 14.3063 14.8063C13.6313 15.4813 12.8375 16.0155 11.925 16.409C11.0125 16.803 10.0375 17 9 17Z" fill="white"/>
<path d="M7.95 10.85L6.31875 9.21875C6.18125 9.08125 6.0125 9.0125 5.8125 9.0125C5.6125 9.0125 5.4375 9.0875 5.2875 9.2375C5.15 9.375 5.08125 9.55 5.08125 9.7625C5.08125 9.975 5.15 10.15 5.2875 10.2875L7.425 12.425C7.5625 12.5625 7.7375 12.6312 7.95 12.6312C8.1625 12.6312 8.3375 12.5625 8.475 12.425L12.7313 8.16875C12.8688 8.03125 12.9375 7.8625 12.9375 7.6625C12.9375 7.4625 12.8625 7.2875 12.7125 7.1375C12.575 7 12.4 6.93125 12.1875 6.93125C11.975 6.93125 11.8 7 11.6625 7.1375L7.95 10.85ZM9 17C7.9625 17 6.9875 16.803 6.075 16.409C5.1625 16.0155 4.36875 15.4813 3.69375 14.8063C3.01875 14.1313 2.4845 13.3375 2.091 12.425C1.697 11.5125 1.5 10.5375 1.5 9.5C1.5 8.4625 1.697 7.4875 2.091 6.575C2.4845 5.6625 3.01875 4.86875 3.69375 4.19375C4.36875 3.51875 5.1625 2.98425 6.075 2.59025C6.9875 2.19675 7.9625 2 9 2C10.0375 2 11.0125 2.19675 11.925 2.59025C12.8375 2.98425 13.6313 3.51875 14.3063 4.19375C14.9813 4.86875 15.5155 5.6625 15.909 6.575C16.303 7.4875 16.5 8.4625 16.5 9.5C16.5 10.5375 16.303 11.5125 15.909 12.425C15.5155 13.3375 14.9813 14.1313 14.3063 14.8063C13.6313 15.4813 12.8375 16.0155 11.925 16.409C11.0125 16.803 10.0375 17 9 17Z" fill="#FF671B"/>
</svg>
