<svg width="22" height="22" viewBox="0 0 22 22" fill="none" xmlns="http://www.w3.org/2000/svg">
<path d="M11.7704 0.321612C11.2774 0.11581 10.7226 0.11581 10.2296 0.321612L0 4.59181L11 9.18363L22 4.59181L11.7704 0.321612Z" fill="url(#paint0_linear_105_2438)"/>
<path d="M0.0371094 5.50049V16.234C0.0371094 17.0403 0.521258 17.7677 1.26504 18.079L10.5987 21.9849V9.94499H10.5845L10.6232 9.92931L0.0371094 5.50049Z" fill="url(#paint1_linear_105_2438)"/>
<path d="M10.5986 21.9999V21.9939L10.584 21.9999H10.5986Z" fill="url(#paint2_linear_105_2438)"/>
<path d="M11.4158 9.94523H11.4016V21.9851L20.7623 18.0786C21.507 17.7677 21.992 17.0398 21.992 16.2328V5.50073L11.3916 9.92972L11.4158 9.94523Z" fill="url(#paint3_linear_105_2438)"/>
<path d="M11.4121 21.9999H11.4265L11.4121 21.9939V21.9999Z" fill="url(#paint4_linear_105_2438)"/>
<defs>
<linearGradient id="paint0_linear_105_2438" x1="20.35" y1="5.75871e-07" x2="3.67281" y2="13.6658" gradientUnits="userSpaceOnUse">
<stop stop-color="#7457A4"/>
<stop offset="1" stop-color="#4C3376"/>
</linearGradient>
<linearGradient id="paint1_linear_105_2438" x1="9.82923" y1="5.50049" x2="-2.96653" y2="8.3113" gradientUnits="userSpaceOnUse">
<stop stop-color="#7457A4"/>
<stop offset="1" stop-color="#4C3376"/>
</linearGradient>
<linearGradient id="paint2_linear_105_2438" x1="10.5975" y1="21.9939" x2="10.5865" y2="22.003" gradientUnits="userSpaceOnUse">
<stop stop-color="#7457A4"/>
<stop offset="1" stop-color="#4C3376"/>
</linearGradient>
<linearGradient id="paint3_linear_105_2438" x1="21.197" y1="5.50073" x2="8.3855" y2="8.3188" gradientUnits="userSpaceOnUse">
<stop stop-color="#7457A4"/>
<stop offset="1" stop-color="#4C3376"/>
</linearGradient>
<linearGradient id="paint4_linear_105_2438" x1="11.4254" y1="21.9939" x2="11.4145" y2="22.0028" gradientUnits="userSpaceOnUse">
<stop stop-color="#7457A4"/>
<stop offset="1" stop-color="#4C3376"/>
</linearGradient>
</defs>
</svg>
