<svg width="24" height="24" viewBox="0 0 24 24" fill="none" xmlns="http://www.w3.org/2000/svg">
<rect width="24" height="24" rx="6" fill="#3A6AC9"/>
<path fill-rule="evenodd" clip-rule="evenodd" d="M18.6789 8.53325C18.7757 8.22612 18.6789 8 18.2151 8H16.6839C16.2943 8 16.1146 8.19519 16.0172 8.41063C16.0172 8.41063 15.2385 10.2084 14.1354 11.3761C13.7784 11.7147 13.6162 11.8222 13.4214 11.8222C13.324 11.8222 13.1776 11.7148 13.1776 11.4071V8.53325C13.1776 8.16425 13.0702 8 12.7459 8H10.338C10.0947 8 9.94831 8.171 9.94831 8.33356C9.94831 8.68287 10.5001 8.76387 10.5567 9.74712V11.8835C10.5567 12.3521 10.4675 12.437 10.2726 12.437C9.75348 12.437 8.49059 10.6308 7.74103 8.56419C7.59578 8.162 7.44878 8 7.05737 8H5.52499C5.0875 8 5 8.19519 5 8.41063C5 8.79425 5.51916 10.7 7.41787 13.2206C8.68367 14.9418 10.4657 15.875 12.0891 15.875C13.0627 15.875 13.1828 15.668 13.1828 15.3108V14.0097C13.1828 13.5952 13.275 13.5125 13.5836 13.5125C13.8111 13.5125 14.2001 13.6205 15.109 14.4502C16.1473 15.434 16.3182 15.875 16.9027 15.875H18.4339C18.8714 15.875 19.0907 15.668 18.9647 15.2585C18.8259 14.8512 18.3301 14.2601 17.6727 13.5586C17.3157 13.1592 16.7802 12.7289 16.6174 12.5135C16.3905 12.2373 16.4553 12.1141 16.6174 11.8683C16.6174 11.8683 18.484 9.37869 18.6783 8.53325H18.6789Z" fill="white"/>
</svg>
