<svg width="24" height="24" viewBox="0 0 24 24" fill="none" xmlns="http://www.w3.org/2000/svg">
<rect width="24" height="24" rx="6" fill="#CC1F1F"/>
<path d="M18.7049 8.6301C18.6252 8.33412 18.4692 8.06425 18.2525 7.84752C18.0357 7.63078 17.7659 7.47477 17.4699 7.3951C16.3799 7.1001 11.9999 7.1001 11.9999 7.1001C11.9999 7.1001 7.61989 7.1001 6.52989 7.3951C6.23391 7.47477 5.96404 7.63078 5.74731 7.84752C5.53057 8.06425 5.37456 8.33412 5.29489 8.6301C5.09136 9.74173 4.99259 10.87 4.99989 12.0001C4.99259 13.1302 5.09136 14.2585 5.29489 15.3701C5.37456 15.6661 5.53057 15.9359 5.74731 16.1527C5.96404 16.3694 6.23391 16.5254 6.52989 16.6051C7.61989 16.9001 11.9999 16.9001 11.9999 16.9001C11.9999 16.9001 16.3799 16.9001 17.4699 16.6051C17.7659 16.5254 18.0357 16.3694 18.2525 16.1527C18.4692 15.9359 18.6252 15.6661 18.7049 15.3701C18.9084 14.2585 19.0072 13.1302 18.9999 12.0001C19.0072 10.87 18.9084 9.74173 18.7049 8.6301ZM10.5999 14.1001V9.9001L14.2349 12.0001L10.5999 14.1001Z" fill="white"/>
</svg>
