<svg width="24" height="24" viewBox="0 0 24 24" fill="none" xmlns="http://www.w3.org/2000/svg">
<rect width="24" height="24" rx="6" fill="#3AC951"/>
<path d="M5.33593 18.6666L6.23726 15.3546C5.64335 14.3365 5.33132 13.1786 5.33326 11.9999C5.33326 8.31792 8.31793 5.33325 11.9999 5.33325C15.6819 5.33325 18.6666 8.31792 18.6666 11.9999C18.6666 15.6819 15.6819 18.6666 11.9999 18.6666C10.8218 18.6685 9.66437 18.3567 8.64659 17.7633L5.33593 18.6666ZM9.59393 8.87192C9.50784 8.87726 9.42371 8.89994 9.34659 8.93859C9.27428 8.97954 9.20826 9.03074 9.15059 9.09059C9.07059 9.16592 9.02526 9.23125 8.97659 9.29459C8.7302 9.61525 8.59767 10.0089 8.59993 10.4133C8.60126 10.7399 8.68659 11.0579 8.81993 11.3553C9.09259 11.9566 9.54126 12.5933 10.1339 13.1833C10.2766 13.3253 10.4159 13.4679 10.5659 13.6006C11.3015 14.2482 12.1781 14.7153 13.1259 14.9646L13.5053 15.0226C13.6286 15.0293 13.7519 15.0199 13.8759 15.0139C14.0701 15.0039 14.2597 14.9513 14.4313 14.8599C14.5186 14.8149 14.6038 14.766 14.6866 14.7133C14.6866 14.7133 14.7153 14.6946 14.7699 14.6533C14.8599 14.5866 14.9153 14.5393 14.9899 14.4613C15.0453 14.4039 15.0933 14.3366 15.1299 14.2599C15.1819 14.1513 15.2339 13.9439 15.2553 13.7713C15.2713 13.6393 15.2666 13.5673 15.2646 13.5226C15.2619 13.4513 15.2026 13.3773 15.1379 13.3459L14.7499 13.1719C14.7499 13.1719 14.1699 12.9193 13.8159 12.7579C13.7786 12.7416 13.7386 12.7324 13.6979 12.7306C13.6523 12.7259 13.6062 12.731 13.5628 12.7456C13.5193 12.7602 13.4795 12.784 13.4459 12.8153V12.8139C13.4426 12.8139 13.3979 12.8519 12.9159 13.4359C12.8883 13.4731 12.8502 13.5012 12.8065 13.5166C12.7628 13.5321 12.7155 13.5341 12.6706 13.5226C12.6272 13.511 12.5846 13.4963 12.5433 13.4786C12.4606 13.4439 12.4319 13.4306 12.3753 13.4059L12.3719 13.4046C11.9905 13.2381 11.6374 13.0131 11.3253 12.7379C11.2413 12.6646 11.1633 12.5846 11.0833 12.5073C10.821 12.2561 10.5924 11.9719 10.4033 11.6619L10.3639 11.5986C10.3357 11.556 10.3128 11.5101 10.2959 11.4619C10.2706 11.3639 10.3366 11.2853 10.3366 11.2853C10.3366 11.2853 10.4986 11.1079 10.5739 11.0119C10.6367 10.9321 10.6952 10.8491 10.7493 10.7633C10.8279 10.6366 10.8526 10.5066 10.8113 10.4059C10.6246 9.94992 10.4313 9.49592 10.2326 9.04525C10.1933 8.95592 10.0766 8.89192 9.97059 8.87925C9.93459 8.87525 9.89859 8.87125 9.86259 8.86859C9.77307 8.86414 9.68335 8.86503 9.59393 8.87125V8.87192Z" fill="white"/>
</svg>
