<svg width="32" height="32" viewBox="0 0 32 32" fill="none" xmlns="http://www.w3.org/2000/svg">
<path d="M2.66787 14.6134C2.51307 14.5283 2.37704 14.4128 2.26791 14.2739C2.15878 14.135 2.07879 13.9755 2.03273 13.805C1.98667 13.6345 1.97549 13.4564 1.99986 13.2814C2.02422 13.1065 2.08363 12.9382 2.17453 12.7867L4.17453 9.33341C4.3212 9.06675 4.54787 8.88008 4.8012 8.77341L15.2412 2.90675C15.4545 2.74675 15.7212 2.66675 16.0012 2.66675C16.2812 2.66675 16.5479 2.74675 16.7612 2.90675L27.2945 8.82675C27.5479 8.96008 27.7612 9.17341 27.8812 9.44008L29.8145 12.8001C30.1879 13.4401 29.9612 14.2534 29.3345 14.6134L28.0012 15.3867V22.0001C28.0012 22.5067 27.7212 22.9467 27.2945 23.1734L16.7612 29.0934C16.5479 29.2534 16.2812 29.3334 16.0012 29.3334C15.7212 29.3334 15.4545 29.2534 15.2412 29.0934L4.70787 23.1734C4.49411 23.0611 4.31522 22.8923 4.19063 22.6855C4.06605 22.4786 4.00053 22.2416 4.0012 22.0001V14.6134C3.6012 14.8401 3.09453 14.8534 2.66787 14.6134ZM16.0012 5.53341V14.4667L23.9479 10.0001L16.0012 5.53341ZM6.66787 21.2134L14.6679 25.7201V16.7734L6.66787 12.2801V21.2134ZM25.3345 21.2134V16.9201L18.6679 20.7867C18.2279 21.0267 17.7345 21.0134 17.3345 20.8001V25.7201L25.3345 21.2134ZM18.4679 17.8134L26.8412 12.9734L26.0679 11.6267L17.6945 16.4667L18.4679 17.8134Z" fill="white"/>
<path d="M2.66787 14.6134C2.51307 14.5283 2.37704 14.4128 2.26791 14.2739C2.15878 14.135 2.07879 13.9755 2.03273 13.805C1.98667 13.6345 1.97549 13.4564 1.99986 13.2814C2.02422 13.1065 2.08363 12.9382 2.17453 12.7867L4.17453 9.33341C4.3212 9.06675 4.54787 8.88008 4.8012 8.77341L15.2412 2.90675C15.4545 2.74675 15.7212 2.66675 16.0012 2.66675C16.2812 2.66675 16.5479 2.74675 16.7612 2.90675L27.2945 8.82675C27.5479 8.96008 27.7612 9.17341 27.8812 9.44008L29.8145 12.8001C30.1879 13.4401 29.9612 14.2534 29.3345 14.6134L28.0012 15.3867V22.0001C28.0012 22.5067 27.7212 22.9467 27.2945 23.1734L16.7612 29.0934C16.5479 29.2534 16.2812 29.3334 16.0012 29.3334C15.7212 29.3334 15.4545 29.2534 15.2412 29.0934L4.70787 23.1734C4.49411 23.0611 4.31522 22.8923 4.19063 22.6855C4.06605 22.4786 4.00053 22.2416 4.0012 22.0001V14.6134C3.6012 14.8401 3.09453 14.8534 2.66787 14.6134ZM16.0012 5.53341V14.4667L23.9479 10.0001L16.0012 5.53341ZM6.66787 21.2134L14.6679 25.7201V16.7734L6.66787 12.2801V21.2134ZM25.3345 21.2134V16.9201L18.6679 20.7867C18.2279 21.0267 17.7345 21.0134 17.3345 20.8001V25.7201L25.3345 21.2134ZM18.4679 17.8134L26.8412 12.9734L26.0679 11.6267L17.6945 16.4667L18.4679 17.8134Z" fill="url(#paint0_linear_411_12949)"/>
<defs>
<linearGradient id="paint0_linear_411_12949" x1="29.9953" y1="2.66675" x2="-1.08117" y2="7.15185" gradientUnits="userSpaceOnUse">
<stop stop-color="#50BAF5"/>
<stop offset="1" stop-color="#115BA4"/>
</linearGradient>
</defs>
</svg>
