<svg width="40" height="41" viewBox="0 0 40 41" fill="none" xmlns="http://www.w3.org/2000/svg">
<path d="M34 30.5C36.42 30.5 40 28.9 40 24.5C40 20.1 36.42 18.5 34 18.5H30V14.5H34C38.4 14.5 40 10.92 40 8.5C40 4.1 36.42 2.5 34 2.5H30V0.5H28V2.5H12V0.5H10V2.5H0V6.5H10V10.5H6C3.58 10.5 0 12.1 0 16.5C0 20.9 3.58 22.5 6 22.5H10V26.5H6C3.58 26.5 0 28.1 0 32.5C0 36.9 3.58 38.5 6 38.5H10V40.5H12V38.5H28V40.5H30V38.5H40V34.5H30V30.5H34ZM34 22.5C34.9 22.5 36 22.88 36 24.5C36 26.12 34.9 26.5 34 26.5H30V22.5H34ZM28 18.5H12V14.5H28V18.5ZM34 6.5C34.9 6.5 36 6.9 36 8.5C36 9.4 35.62 10.5 34 10.5H30V6.5H34ZM12 6.5H28V10.5H12V6.5ZM6 18.5C5.1 18.5 4 18.12 4 16.5C4 14.88 5.1 14.5 6 14.5H10V18.5H6ZM12 22.5H28V26.5H12V22.5ZM6 34.5C5.1 34.5 4 34.12 4 32.5C4 30.88 5.1 30.5 6 30.5H10V34.5H6ZM28 34.5H12V30.5H28V34.5Z" fill="#777777"/>
</svg>
