<svg width="21" height="20" viewBox="0 0 21 20" fill="none" xmlns="http://www.w3.org/2000/svg">
<path d="M5.13445 9.63397C4.29778 9.63397 3.53231 9.42899 2.83805 9.01903C2.14379 8.58956 1.59195 8.0039 1.18251 7.26208C0.773077 6.52025 0.568359 5.70034 0.568359 4.80234C0.568359 3.90434 0.773077 3.09419 1.18251 2.37189C1.59195 1.63006 2.14379 1.05417 2.83805 0.644217C3.53231 0.214739 4.29778 0 5.13445 0C5.95332 0 6.70988 0.214739 7.40414 0.644217C8.0984 1.05417 8.65025 1.63006 9.05968 2.37189C9.46912 3.09419 9.67383 3.90434 9.67383 4.80234C9.67383 5.70034 9.46912 6.52025 9.05968 7.26208C8.65025 8.0039 8.0984 8.58956 7.40414 9.01903C6.70988 9.42899 5.95332 9.63397 5.13445 9.63397ZM14.1865 0.351392H17.0971L6.9502 19.6779H4.06636L14.1865 0.351392ZM5.16115 6.91069C5.65959 6.91069 6.06903 6.71547 6.38945 6.32504C6.72768 5.9346 6.8968 5.42704 6.8968 4.80234C6.8968 4.19717 6.72768 3.69937 6.38945 3.30893C6.06903 2.9185 5.65959 2.72328 5.16115 2.72328C4.6271 2.72328 4.19097 2.9185 3.85274 3.30893C3.53231 3.69937 3.3721 4.19717 3.3721 4.80234C3.3721 5.42704 3.53231 5.9346 3.85274 6.32504C4.17317 6.71547 4.6093 6.91069 5.16115 6.91069ZM16.0023 20C15.1834 20 14.4268 19.795 13.7326 19.3851C13.0383 18.9556 12.4865 18.3699 12.077 17.6281C11.6676 16.8863 11.4629 16.0664 11.4629 15.1684C11.4629 14.2704 11.6676 13.4602 12.077 12.7379C12.4865 11.9961 13.0383 11.4202 13.7326 11.0102C14.4268 10.5808 15.1834 10.366 16.0023 10.366C16.8211 10.366 17.5777 10.5808 18.272 11.0102C18.984 11.4202 19.5448 11.9961 19.9542 12.7379C20.3636 13.4602 20.5684 14.2704 20.5684 15.1684C20.5684 16.0664 20.3636 16.8863 19.9542 17.6281C19.5448 18.3699 18.9929 18.9556 18.2987 19.3851C17.6044 19.795 16.8389 20 16.0023 20ZM16.029 17.2474C16.5274 17.2474 16.9369 17.0522 17.2573 16.6618C17.5955 16.2714 17.7646 15.7735 17.7646 15.1684C17.7646 14.5632 17.5955 14.0654 17.2573 13.675C16.9369 13.2845 16.5274 13.0893 16.029 13.0893C15.4771 13.0893 15.041 13.2845 14.7206 13.675C14.4001 14.0459 14.2399 14.5437 14.2399 15.1684C14.2399 15.7931 14.4001 16.3006 14.7206 16.6911C15.041 17.062 15.4771 17.2474 16.029 17.2474Z" fill="#FF671B"/>
</svg>
