<svg width="10" height="16" viewBox="0 0 10 16" fill="none" xmlns="http://www.w3.org/2000/svg">
<path d="M1.29624 1.21979C0.924325 1.53184 0.8992 2.06077 1.24012 2.40119L6.848 8L1.24012 13.5988C0.927611 13.9109 0.92268 14.3813 1.2105 14.6979L1.29624 14.7802C1.66815 15.0923 2.24602 15.0693 2.58694 14.7288L8.75988 8.56502C8.76382 8.56109 8.76771 8.55713 8.77155 8.55315L8.70376 8.61638C8.74559 8.58129 8.78302 8.54345 8.81605 8.50345C8.82819 8.4886 8.83975 8.47359 8.8507 8.45833C8.86187 8.44289 8.8725 8.42692 8.88248 8.41071C8.89155 8.39593 8.89996 8.38126 8.90787 8.36643C8.9172 8.34893 8.92598 8.33082 8.93403 8.3125C8.9412 8.29628 8.94777 8.27985 8.95376 8.2633C8.95962 8.24688 8.96493 8.23051 8.96968 8.21403C8.97503 8.19572 8.97963 8.17722 8.98354 8.15862C8.98748 8.13952 8.99077 8.12029 8.99332 8.101C8.99523 8.08697 8.99672 8.07268 8.9978 8.05838C8.99927 8.03867 9.00001 8.01908 9 7.99949C8.99999 7.98033 8.99924 7.96104 8.99778 7.94179C8.99672 7.92731 8.99523 7.91302 8.99335 7.89877C8.99077 7.8797 8.98748 7.86048 8.98346 7.84136C8.97963 7.82278 8.97503 7.80428 8.96974 7.78591C8.96493 7.76949 8.95962 7.75312 8.95376 7.73688C8.94777 7.72015 8.9412 7.70372 8.93405 7.68746C8.92598 7.66918 8.9172 7.65107 8.90769 7.63322C8.89996 7.61874 8.89155 7.60407 8.88262 7.58959C8.87249 7.57308 8.86187 7.55711 8.85062 7.54143C8.83975 7.52641 8.82819 7.5114 8.81603 7.49667C8.78302 7.45655 8.74559 7.41871 8.70376 7.38362L8.77155 7.44685C8.76771 7.44287 8.76382 7.43891 8.75988 7.43498L2.58694 1.27115C2.24602 0.930734 1.66815 0.907738 1.29624 1.21979Z" fill="#F47922" stroke="#F47922" stroke-width="2"/>
</svg>
