<svg width="169" height="50" viewBox="0 0 169 50" fill="none" xmlns="http://www.w3.org/2000/svg">
<g clip-path="url(#clip0_105_1150)">
<path d="M17.5376 30.1435C17.219 29.667 16.9436 29.1593 16.7166 28.6245C16.9383 29.1457 17.2116 29.6522 17.5376 30.1435Z" fill="#2B2A29"/>
<path d="M19.8925 32.5576C19.7592 32.4636 19.6296 32.3658 19.5017 32.2642C19.631 32.3643 19.7606 32.4651 19.8925 32.5576Z" fill="#2B2A29"/>
<path d="M20.6216 33.0226C20.5167 32.9623 20.4146 32.8979 20.312 32.8337C20.4146 32.8979 20.5174 32.9623 20.6216 33.0226Z" fill="#2B2A29"/>
<path d="M16.697 28.5717C16.5978 28.3336 16.5094 28.0895 16.4304 27.8413C16.5085 28.0878 16.5963 28.3314 16.697 28.5717Z" fill="#2B2A29"/>
<path d="M16.3713 27.6397C16.3176 27.4583 16.2721 27.273 16.2295 27.0872C16.2706 27.273 16.3184 27.4576 16.3713 27.6397Z" fill="#2B2A29"/>
<path d="M22.3194 33.7798C22.1095 33.7112 21.9024 33.6356 21.6992 33.552C21.9033 33.6364 22.1109 33.7118 22.3194 33.7798Z" fill="#2B2A29"/>
<path d="M21.454 33.4459C21.2952 33.3758 21.1397 33.2987 20.9863 33.2195C21.1403 33.3002 21.2967 33.3758 21.454 33.4459Z" fill="#2B2A29"/>
<path d="M23.7113 34.1098C23.6027 34.0926 23.4925 34.0805 23.3853 34.0598C23.4931 34.0799 23.6027 34.0941 23.7113 34.1098Z" fill="#2B2A29"/>
<path d="M23.1239 34C22.9124 33.9521 22.7024 33.9006 22.4971 33.8386C22.7039 33.9006 22.9133 33.9536 23.1239 34Z" fill="#2B2A29"/>
<path d="M44.0328 25.307C44.0328 28.3668 43.2677 31.3452 41.7369 34.2377C41.3729 34.938 40.8266 35.7762 40.1007 36.7495C39.812 37.1614 39.1612 37.8843 38.1452 38.9197C37.3427 39.6665 36.6526 40.2444 36.0763 40.6557C32.6966 43.0158 29.023 44.1962 25.0521 44.1962C22.7794 44.1962 20.5291 43.7776 18.3016 42.9401C14.3161 41.3712 11.1947 38.783 8.93683 35.1743C7.02816 32.0217 6.07224 28.7332 6.07224 25.307V24.9645C6.07224 21.9195 6.84583 18.9419 8.39114 16.0338C8.75453 15.334 9.30086 14.4961 10.0282 13.5211C10.3006 13.1109 10.9444 12.3864 11.9599 11.3518C12.778 10.605 13.4747 10.0351 14.0511 9.63821C17.4299 7.26307 21.0978 6.07529 25.0521 6.07529C27.3406 6.07529 29.5909 6.49466 31.8034 7.33109C35.7891 8.91539 38.9179 11.5035 41.1914 15.0972C43.0851 18.2489 44.0328 21.5383 44.0328 24.9645V25.307ZM41.4624 11.9267C41.0983 11.4243 40.4461 10.7147 39.5067 9.8012C38.5651 8.91749 37.7782 8.25523 37.1416 7.81341C33.4106 5.26937 29.3773 3.99683 25.0409 3.99683C21.205 3.99683 17.596 5.00173 14.2148 7.01429C13.3201 7.5464 12.4408 8.17813 11.5773 8.91007C11.3346 9.047 10.667 9.68676 9.57471 10.8292C8.77076 11.7285 8.08892 12.5897 7.52827 13.412C6.86061 14.4489 6.33053 15.4156 5.93613 16.3135C4.64744 19.1782 4.00342 22.0354 4.00342 24.8838V25.3868C4.00342 27.809 4.48137 30.2702 5.43581 32.7687C5.84518 33.881 6.39826 35.0152 7.09653 36.1739C7.52025 36.8595 8.0212 37.5673 8.59731 38.2993C8.97629 38.8165 9.63596 39.541 10.5769 40.4695C11.5319 41.3389 12.3277 41.9938 12.965 42.4356C16.6795 44.9939 20.7056 46.2744 25.0409 46.2744C28.4535 46.2744 31.7051 45.4679 34.7982 43.8522C38.9989 41.5968 42.1218 38.2993 44.1691 33.9573C45.4585 31.0768 46.1016 28.2204 46.1016 25.3868V24.8838C46.1016 22.8884 45.7688 20.8086 45.1018 18.6459C44.6165 17.2585 44.1147 16.0787 43.5995 15.1031C43.0391 14.067 42.3265 13.0083 41.4624 11.9267Z" fill="#2B2A29"/>
<path d="M17.6116 30.2507C17.7127 30.3985 17.8124 30.5471 17.9226 30.6927C18.059 30.9206 18.4609 31.3478 19.128 31.9715C19.1815 32.0165 19.2367 32.0544 19.2902 32.0986C18.6506 31.5623 18.0864 30.9401 17.6116 30.2507Z" fill="#2B2A29"/>
<path d="M40.0064 25.3644C40.0064 27.7528 39.385 30.1191 38.1425 32.4611C37.823 33.0257 37.3609 33.6947 36.7548 34.4699C36.2382 35.1705 35.4961 35.9389 34.5252 36.7747C31.6897 39.0265 28.5357 40.1539 25.0644 40.1539C21.5463 40.1539 18.3698 39.0123 15.5342 36.73C14.9885 36.2888 14.3365 35.6496 13.5787 34.8132C12.881 33.9302 12.3273 33.1162 11.9177 32.3707C10.6903 30.0428 10.0753 27.7073 10.0753 25.3644V24.8844C10.0753 23.3325 10.3634 21.705 10.9403 20.0012C11.3953 18.844 11.865 17.902 12.3503 17.17C12.6689 16.593 13.2748 15.8013 14.1697 14.7964C14.9572 14.0212 15.5795 13.4657 16.0344 13.1307C18.7792 11.1078 21.7813 10.0948 25.0414 10.0948C28.5445 10.0948 31.7127 11.2365 34.5484 13.5187C35.1089 13.9599 35.7462 14.5834 36.4594 15.3899C37.1859 16.2878 37.7629 17.1177 38.1878 17.8781C39.4006 20.2068 40.0064 22.5423 40.0064 24.8844V25.3644ZM39.3037 15.8102C38.9093 15.1096 38.1967 14.2111 37.1665 13.1144C36.4391 12.3975 35.7953 11.8338 35.2346 11.4219C32.1283 9.15138 28.7345 8.0166 25.0523 8.0166C21.4613 8.0166 18.1808 9.06855 15.2105 11.1699C14.7109 11.4606 13.9456 12.1163 12.9155 13.1361C12.188 13.8836 11.6117 14.5618 11.1882 15.1702C9.06582 18.2332 8.00586 21.5545 8.00586 25.1357C8.00586 28.5342 8.96832 31.7106 10.8928 34.6665C11.3319 35.3379 12.0057 36.1603 12.9155 37.1352C13.6426 37.8512 14.2866 38.4157 14.8479 38.8262C17.9537 41.0967 21.3482 42.2321 25.0293 42.2321C28.5907 42.2321 31.8715 41.1885 34.8715 39.1005C35.3859 38.7648 36.1214 38.1413 37.0758 37.2263C37.6816 36.6022 38.1746 36.0385 38.5533 35.5346C40.902 32.3514 42.0767 28.8766 42.0767 25.1124C42.0767 22.919 41.6443 20.7398 40.7807 18.5763C40.3407 17.5557 39.8488 16.6341 39.3037 15.8102Z" fill="#2B2A29"/>
<path d="M34.5727 30.5886C34.2995 31.1365 33.7696 31.8594 32.9828 32.7566C32.3008 33.4108 31.77 33.8675 31.3925 34.1254C29.4228 35.4643 27.3705 36.1335 25.2348 36.1335H24.8937C23.5308 36.1335 22.1364 35.8374 20.713 35.2439C20.0923 34.986 19.4408 34.6128 18.759 34.1254C18.3956 33.8974 17.8276 33.4032 17.0549 32.6422C15.0702 30.4368 14.0786 27.9265 14.0786 25.1124C14.0786 23.8656 14.305 22.6028 14.7598 21.3251C15.6845 18.9523 17.1688 17.1186 19.2138 15.8259C21.0615 14.6858 22.9545 14.1156 24.8937 14.1156H25.2348C26.5827 14.1156 27.9377 14.4049 29.3015 14.9819C29.9067 15.2099 30.6265 15.6136 31.4596 16.1915C31.823 16.4195 32.3761 16.8989 33.1182 17.6291C35.0575 19.8495 36.0267 22.3516 36.0267 25.1357C36.0267 27.0525 35.5419 28.8706 34.5727 30.5886ZM34.2989 15.9232C33.6153 15.2675 33.0319 14.7644 32.5472 14.4137C30.2268 12.8297 27.7777 12.0371 25.2012 12.0371H24.9049C22.4029 12.0371 20.0148 12.7841 17.7406 14.277C17.2701 14.5977 16.7853 14.9782 16.2852 15.4201C15.5423 16.1519 15.0413 16.7007 14.7837 17.0654C12.9339 19.5041 12.0085 22.1863 12.0085 25.1124C12.0085 27.7955 12.7669 30.2649 14.2836 32.5195C14.5409 32.9457 15.1023 33.617 15.9666 34.5306C16.8309 35.3081 17.5202 35.8576 18.0361 36.1782C20.2345 37.5336 22.5092 38.2118 24.8596 38.2118H25.2466C27.051 38.2118 28.8845 37.7782 30.7502 36.9087C31.5376 36.5274 32.3714 35.9944 33.2514 35.3081C33.6766 34.989 34.2759 34.3939 35.0484 33.525C37.0807 31.0109 38.0961 28.2134 38.0961 25.1357C38.0961 22.6365 37.4143 20.2899 36.049 18.094C35.6403 17.4392 35.056 16.7149 34.2989 15.9232Z" fill="#2B2A29"/>
<path d="M48.0348 25.2153C48.0348 29.2815 46.9816 33.1488 44.8748 36.8187C44.4341 37.5648 43.8273 38.4483 43.0548 39.4681C41.9931 40.7929 40.8101 41.989 39.5066 43.0536C38.475 43.8759 37.5421 44.5307 36.7092 45.0183C33.0085 47.1347 29.1883 48.1926 25.2465 48.1926H24.8595C22.2509 48.1926 19.6133 47.7058 16.944 46.7316C15.4282 46.1374 14.0935 45.475 12.9418 44.7453C12.3807 44.4097 11.7128 43.9371 10.94 43.3278C10.3944 42.9631 9.55995 42.2087 8.43803 41.0665C7.33184 39.8637 6.48988 38.8132 5.91295 37.9147C3.3514 33.9555 2.06946 29.7225 2.06946 25.2153V25.0561C2.06946 21.0056 3.12371 17.1384 5.2303 13.4527C5.67112 12.7217 6.2778 11.8388 7.05055 10.8034C8.11193 9.49444 9.28755 8.29815 10.5769 7.21802C11.6221 6.39473 12.5622 5.74077 13.3958 5.254C17.0809 3.13612 20.902 2.07761 24.8595 2.07761H25.2465C27.8542 2.07761 30.4843 2.56565 33.1381 3.53982C34.6545 4.14908 35.9886 4.81957 37.1416 5.55005C37.717 5.86919 38.3841 6.33434 39.1427 6.9436C39.7025 7.32398 40.5371 8.07758 41.6439 9.20427C42.7665 10.4071 43.6152 11.4582 44.1915 12.3568C46.7537 16.3153 48.0348 20.5481 48.0348 25.0561V25.2153ZM47.4893 13.9777C47.1713 13.3085 46.7233 12.5152 46.147 11.6026C45.6475 10.8108 44.9269 9.84427 43.9875 8.70186C43.3808 8.00296 42.7049 7.30173 41.9625 6.60051C41.0528 5.76386 40.1507 5.04696 39.2566 4.45402C37.9078 3.52477 36.6182 2.7854 35.3901 2.23824C32.0535 0.746152 28.6573 0 25.2011 0H24.9048C20.5833 0 16.4436 1.1348 12.4862 3.40229C11.4857 3.96662 10.4629 4.67462 9.41631 5.52758C8.91596 5.87745 8.08895 6.6236 6.9366 7.76582C6.08788 8.70927 5.38287 9.55484 4.82156 10.3003C3.95744 11.5189 3.25981 12.6536 2.73058 13.7032C0.910541 17.3581 0 21.1118 0 24.9648V25.3298C0 28.756 0.742996 32.1515 2.22878 35.5165C2.98739 37.1925 3.9433 38.7908 5.09483 40.313C5.48943 40.893 6.26957 41.7902 7.43693 43.0087C8.42324 43.9371 9.24197 44.6526 9.89424 45.155C11.1827 46.0993 12.3739 46.8611 13.4653 47.439C17.1637 49.328 20.9624 50.2723 24.8595 50.2723H25.2465C28.0961 50.2723 30.9324 49.7459 33.7524 48.6956C35.3289 48.1319 36.8909 47.3634 38.4377 46.3885C39.0749 45.9931 39.8097 45.4676 40.6443 44.8134C41.2197 44.3873 42.0534 43.6173 43.1454 42.5063C44.0105 41.5614 44.7148 40.7166 45.2597 39.9705C46.1396 38.7527 46.8446 37.6178 47.3753 36.5676C49.1953 32.9125 50.106 29.1679 50.106 25.3298V24.9648C50.106 21.2336 49.2327 17.5719 47.4893 13.9777Z" fill="#2B2A29"/>
<path d="M16.1496 26.7001C16.134 26.6187 16.1242 26.5357 16.1116 26.4536C16.1236 26.5357 16.1349 26.6187 16.1496 26.7001Z" fill="#2B2A29"/>
<path d="M21.7001 33.5523C21.618 33.5187 21.5358 33.4829 21.4536 33.4463C21.5358 33.4829 21.6173 33.5187 21.7001 33.5523Z" fill="#E95329"/>
<path d="M25.1583 15.8242C20.0956 15.8242 15.9915 19.9449 15.9915 25.0294C15.9915 25.5153 16.0398 25.9885 16.1122 26.4534C16.048 26.0153 16.0115 25.5697 16.0115 25.1122C16.0115 22.7193 16.8832 20.5999 18.6275 18.7556C20.4766 16.9569 22.6227 16.056 25.0646 16.056C27.2322 16.056 29.2035 16.7961 30.9776 18.2748C31.6446 18.9156 32.039 19.3424 32.1603 19.5553C33.449 21.2331 34.0928 23.0922 34.0928 25.1362C34.0928 27.5299 33.2211 29.6561 31.4777 31.5154C29.6271 33.3157 27.4825 34.2157 25.0414 34.2157C24.5881 34.2157 24.1467 34.1753 23.7111 34.1095C24.1838 34.1858 24.6647 34.2358 25.1583 34.2358C30.2204 34.2358 34.3245 30.1145 34.3245 25.0294C34.3245 19.9449 30.2204 15.8242 25.1583 15.8242Z" fill="#E95329"/>
<path d="M22.4957 33.8379C22.4366 33.82 22.3782 33.7995 22.3191 33.7803C22.3782 33.7995 22.436 33.82 22.4957 33.8379Z" fill="#E95329"/>
<path d="M23.3848 34.0597C23.297 34.0431 23.2113 34.0194 23.1235 34C23.2113 34.0201 23.297 34.0426 23.3848 34.0597Z" fill="#E95329"/>
<path d="M20.9862 33.2196C20.864 33.1561 20.7421 33.092 20.6213 33.0225C20.7412 33.0911 20.8626 33.157 20.9862 33.2196Z" fill="#E95329"/>
<path d="M19.5025 32.2644C19.4316 32.2099 19.3606 32.1568 19.2903 32.1001C19.3592 32.1568 19.4321 32.2091 19.5025 32.2644Z" fill="#E95329"/>
<path d="M17.6111 30.2494C17.5875 30.2145 17.5609 30.1798 17.5378 30.145C17.5616 30.1807 17.5866 30.2145 17.6111 30.2494Z" fill="#E95329"/>
<path d="M16.2295 27.0868C16.2011 26.9585 16.1719 26.8306 16.1494 26.7C16.1734 26.8306 16.2002 26.9591 16.2295 27.0868Z" fill="#E95329"/>
<path d="M16.717 28.6246C16.7095 28.6074 16.7036 28.5902 16.6968 28.573C16.7036 28.5902 16.7102 28.6074 16.717 28.6246Z" fill="#E95329"/>
<path d="M16.4303 27.841C16.4096 27.7746 16.39 27.7075 16.3706 27.6401C16.3907 27.7075 16.4096 27.7746 16.4303 27.841Z" fill="#E95329"/>
<path d="M20.3119 32.8335C20.1712 32.7452 20.0312 32.655 19.8928 32.5579C20.0291 32.6542 20.1696 32.7446 20.3119 32.8335Z" fill="#E95329"/>
<path d="M30.0933 29.97C31.3805 28.5569 32.0237 26.9362 32.0237 25.112C32.0237 23.2124 31.3128 21.5409 29.8895 20.0958C28.481 18.7883 26.8691 18.1348 25.0521 18.1348C23.1449 18.1348 21.4721 18.8495 20.0347 20.2789C18.7327 21.6935 18.0813 23.3112 18.0813 25.136C18.0813 27.0365 18.8004 28.7163 20.2386 30.1747C21.6462 31.4831 23.2512 32.1357 25.0521 32.1357C26.9601 32.1357 28.6403 31.4136 30.0933 29.97Z" fill="#E95329"/>
<path d="M18.0815 25.1358C18.0815 23.3116 18.7329 21.6932 20.0349 20.2787C21.4724 18.85 23.1451 18.1345 25.0523 18.1345C26.8694 18.1345 28.4811 18.7887 29.8897 20.0956C31.3122 21.5407 32.0239 23.2123 32.0239 25.1127C32.0239 26.9366 31.3808 28.5567 30.0935 29.9698C28.6404 31.4133 26.9595 32.1356 25.0523 32.1356C23.2508 32.1356 21.6466 31.4828 20.2387 30.1753C18.8007 28.7159 18.0815 27.0362 18.0815 25.1358ZM31.4783 31.5149C33.2209 29.6564 34.0934 27.5296 34.0934 25.1358C34.0934 23.0928 33.4487 21.2325 32.16 19.555C32.0395 19.342 31.6443 18.915 30.9773 18.2753C29.2032 16.7966 27.2319 16.0557 25.0643 16.0557C22.6224 16.0557 20.477 16.9566 18.6272 18.7559C16.8837 20.6002 16.0112 22.7195 16.0112 25.1127C16.0112 25.5694 16.0485 26.0157 16.1116 26.4537C16.1243 26.5359 16.134 26.619 16.1496 26.7006C16.172 26.8305 16.2011 26.9585 16.2294 27.0869C16.2718 27.2732 16.3172 27.4586 16.3708 27.6402C16.3902 27.7074 16.4088 27.7748 16.4303 27.8413C16.5092 28.0895 16.5978 28.334 16.6968 28.5724C16.7035 28.5896 16.7095 28.6076 16.717 28.6248C16.9433 29.1592 17.2195 29.6676 17.5381 30.1454C17.5612 30.1804 17.5873 30.2149 17.6118 30.2507C18.086 30.9407 18.6502 31.5636 19.2904 32.0995C19.3605 32.1572 19.4312 32.2102 19.5019 32.2648C19.6299 32.3657 19.7595 32.4636 19.8927 32.5579C20.0311 32.6549 20.171 32.7454 20.3118 32.8336C20.4145 32.898 20.5164 32.9622 20.6216 33.0228C20.7421 33.0924 20.8642 33.1566 20.9862 33.2195C21.1396 33.2987 21.2951 33.3757 21.4538 33.446C21.5357 33.4833 21.6175 33.5185 21.6994 33.5522C21.9026 33.6359 22.1096 33.7113 22.3196 33.7802C22.3782 33.7995 22.438 33.8205 22.4975 33.8385C22.7028 33.9012 22.9127 33.9521 23.1236 33.9999C23.2114 34.0195 23.297 34.0432 23.3848 34.0597C23.492 34.0807 23.603 34.0926 23.7108 34.1098C24.1464 34.1748 24.5885 34.2153 25.0411 34.2153C27.4822 34.2153 29.6276 33.3159 31.4783 31.5149Z" fill="#E95329"/>
<path d="M59.3691 47.7362V40H62.2619C62.8509 40 63.3225 40.0791 63.6768 40.2375C64.0344 40.3923 64.3132 40.6333 64.513 40.9604C64.7164 41.2841 64.8181 41.6236 64.8181 41.979C64.8181 42.3096 64.7287 42.621 64.5499 42.913C64.3711 43.2049 64.101 43.4406 63.7398 43.6201C64.2062 43.7574 64.5639 43.9913 64.8128 44.3219C65.0653 44.6527 65.1916 45.0432 65.1916 45.4935C65.1916 45.8558 65.1144 46.1936 64.9601 46.5067C64.8094 46.8163 64.6218 47.0555 64.3973 47.2244C64.1729 47.3932 63.8907 47.5216 63.5505 47.6095C63.2139 47.694 62.8002 47.7362 62.3092 47.7362H59.3691ZM60.3895 43.2507H62.0568C62.509 43.2507 62.8335 43.2208 63.0298 43.161C63.2893 43.0836 63.4839 42.9552 63.6137 42.7758C63.7468 42.5964 63.8135 42.3711 63.8135 42.1003C63.8135 41.8435 63.7522 41.6183 63.6294 41.4248C63.5067 41.2279 63.3313 41.0941 63.1034 41.0238C62.8755 40.9499 62.4846 40.9129 61.9306 40.9129H60.3895V43.2507ZM60.3895 46.8233H62.3092C62.6389 46.8233 62.8703 46.8109 63.0035 46.7863C63.2385 46.7441 63.4348 46.6738 63.5926 46.5753C63.7504 46.4767 63.8801 46.3343 63.9818 46.1479C64.0835 45.9579 64.1344 45.7398 64.1344 45.4935C64.1344 45.205 64.0607 44.9552 63.9134 44.7442C63.7662 44.5295 63.561 44.38 63.298 44.2956C63.0385 44.2076 62.6634 44.1637 62.1725 44.1637H60.3895V46.8233Z" fill="#2B2A29"/>
<path d="M70.1203 47.0451C69.7697 47.3441 69.4313 47.5551 69.1052 47.6783C68.7826 47.8014 68.4355 47.8629 68.0638 47.8629C67.4502 47.8629 66.9786 47.7135 66.6489 47.4144C66.3194 47.1118 66.1545 46.7267 66.1545 46.2587C66.1545 45.9844 66.216 45.7345 66.3387 45.5094C66.4649 45.2807 66.6279 45.0978 66.8277 44.9606C67.0311 44.8234 67.259 44.7196 67.5115 44.6492C67.6973 44.5999 67.9779 44.5525 68.3531 44.5068C69.1175 44.4153 69.6803 44.3062 70.0414 44.1796C70.045 44.0494 70.0467 43.9667 70.0467 43.9315C70.0467 43.5446 69.9573 43.2719 69.7785 43.1135C69.5365 42.899 69.177 42.7917 68.7002 42.7917C68.2549 42.7917 67.9253 42.8708 67.7114 43.0292C67.5011 43.184 67.345 43.4601 67.2433 43.8576L66.3176 43.731C66.4018 43.3335 66.5403 43.0134 66.7331 42.7706C66.9259 42.5244 67.2047 42.3361 67.5694 42.206C67.934 42.0722 68.3565 42.0054 68.8369 42.0054C69.3139 42.0054 69.7013 42.0616 69.9993 42.1743C70.2974 42.2869 70.5166 42.4293 70.6567 42.6017C70.797 42.7706 70.8952 42.9852 70.9513 43.2455C70.9829 43.4073 70.9986 43.6994 70.9986 44.1215V45.3881C70.9986 46.271 71.018 46.8304 71.0565 47.0661C71.0986 47.2984 71.1792 47.5217 71.2985 47.7363H70.3096C70.2115 47.5393 70.1484 47.3089 70.1203 47.0451ZM70.0414 44.9237C69.6977 45.0643 69.1824 45.184 68.495 45.2825C68.1059 45.3388 67.8306 45.4021 67.6693 45.4724C67.5081 45.5428 67.3836 45.6466 67.2959 45.7838C67.2083 45.9175 67.1644 46.067 67.1644 46.2323C67.1644 46.4856 67.259 46.6967 67.4484 46.8657C67.6412 47.0345 67.9218 47.119 68.29 47.119C68.6547 47.119 68.979 47.0397 69.263 46.8815C69.547 46.7196 69.7556 46.4997 69.8889 46.2217C69.9905 46.0072 70.0414 45.6906 70.0414 45.2719V44.9237Z" fill="#2B2A29"/>
<path d="M72.5024 42.1318H73.4492V46.9498H75.6057V42.1318H76.5524V46.9498H78.7142V42.1318H79.6556V47.7361H72.5024V42.1318Z" fill="#2B2A29"/>
<path d="M84.1206 42.1318H88.5281V47.7361H87.5814V42.9181H85.0673V47.7361H84.1206V42.1318Z" fill="#2B2A29"/>
<path d="M89.9539 49.8842V42.1321H90.8164V42.8603C91.0198 42.5753 91.2495 42.3625 91.5054 42.2218C91.7614 42.0775 92.0718 42.0054 92.4364 42.0054C92.9132 42.0054 93.3341 42.1285 93.6984 42.3748C94.0639 42.6211 94.3382 42.9693 94.5248 43.4197C94.7103 43.8664 94.8036 44.3572 94.8036 44.8919C94.8036 45.4654 94.7003 45.9826 94.4926 46.4434C94.2893 46.9008 93.9917 47.2526 93.5985 47.4989C93.2097 47.7416 92.7999 47.8629 92.368 47.8629C92.0525 47.8629 91.7684 47.7961 91.516 47.6625C91.2671 47.5287 91.0619 47.3599 90.9006 47.1558V49.8842H89.9539ZM90.8112 44.9658C90.8112 45.6871 90.9567 46.2201 91.2477 46.5648C91.5387 46.9096 91.8912 47.082 92.3049 47.082C92.7254 47.082 93.0853 46.9043 93.383 46.5489C93.6851 46.1901 93.8351 45.636 93.8351 44.8867C93.8351 44.1726 93.6884 43.6378 93.3941 43.2825C93.1031 42.9271 92.7532 42.7495 92.347 42.7495C91.9437 42.7495 91.5861 42.9395 91.2741 43.3194C90.9655 43.6958 90.8112 44.2447 90.8112 44.9658Z" fill="#2B2A29"/>
<path d="M95.5981 44.9342C95.5981 43.8964 95.8858 43.1277 96.4601 42.6281C96.941 42.213 97.5264 42.0054 98.2172 42.0054C98.9847 42.0054 99.6123 42.2587 100.1 42.7653C100.588 43.2684 100.831 43.965 100.831 44.855C100.831 45.5763 100.722 46.1444 100.505 46.5595C100.291 46.9712 99.9777 47.2912 99.5634 47.5199C99.1536 47.7486 98.7048 47.8629 98.2172 47.8629C97.4353 47.8629 96.8022 47.6114 96.3179 47.1084C95.8381 46.6052 95.5981 45.8805 95.5981 44.9342ZM96.5711 44.9342C96.5711 45.6518 96.7266 46.1901 97.0387 46.5489C97.3509 46.9043 97.7441 47.082 98.2172 47.082C98.6871 47.082 99.078 46.9025 99.3902 46.5437C99.7023 46.1849 99.8578 45.6378 99.8578 44.9025C99.8578 44.2095 99.7 43.6852 99.3846 43.33C99.0725 42.9711 98.6837 42.7917 98.2172 42.7917C97.7441 42.7917 97.3509 42.9693 97.0387 43.3247C96.7266 43.68 96.5711 44.2165 96.5711 44.9342Z" fill="#2B2A29"/>
<path d="M101.952 42.1318H104.134C104.671 42.1318 105.068 42.1775 105.328 42.269C105.592 42.3569 105.816 42.5205 106.001 42.7598C106.191 42.9991 106.286 43.2857 106.286 43.6199C106.286 43.8874 106.229 44.1213 106.117 44.3218C106.008 44.5188 105.844 44.6842 105.623 44.8179C105.886 44.9058 106.104 45.0712 106.275 45.3139C106.45 45.5531 106.538 45.838 106.538 46.1688C106.503 46.7 106.313 47.0941 105.97 47.3508C105.626 47.6077 105.127 47.7361 104.471 47.7361H101.952V42.1318ZM102.898 44.4907H103.909C104.312 44.4907 104.589 44.4695 104.74 44.4273C104.89 44.3852 105.025 44.3007 105.144 44.174C105.264 44.0438 105.323 43.889 105.323 43.7096C105.323 43.4142 105.218 43.2084 105.007 43.0922C104.801 42.9761 104.445 42.9181 103.94 42.9181H102.898V44.4907ZM102.898 46.9551H104.145C104.682 46.9551 105.049 46.8935 105.249 46.7704C105.449 46.6438 105.555 46.4273 105.565 46.1213C105.565 45.9419 105.507 45.7765 105.392 45.6253C105.276 45.4705 105.125 45.3737 104.939 45.335C104.753 45.2928 104.455 45.2717 104.045 45.2717H102.898V46.9551Z" fill="#2B2A29"/>
<path d="M107.189 44.9342C107.189 43.8964 107.477 43.1277 108.052 42.6281C108.532 42.213 109.119 42.0054 109.809 42.0054C110.577 42.0054 111.204 42.2587 111.692 42.7653C112.18 43.2684 112.423 43.965 112.423 44.855C112.423 45.5763 112.314 46.1444 112.096 46.5595C111.883 46.9712 111.569 47.2912 111.156 47.5199C110.745 47.7486 110.296 47.8629 109.809 47.8629C109.027 47.8629 108.394 47.6114 107.91 47.1084C107.43 46.6052 107.189 45.8805 107.189 44.9342ZM108.162 44.9342C108.162 45.6518 108.319 46.1901 108.631 46.5489C108.943 46.9043 109.335 47.082 109.809 47.082C110.279 47.082 110.67 46.9025 110.981 46.5437C111.293 46.1849 111.45 45.6378 111.45 44.9025C111.45 44.2095 111.292 43.6852 110.977 43.33C110.665 42.9711 110.275 42.7917 109.809 42.7917C109.335 42.7917 108.943 42.9693 108.631 43.3247C108.319 43.68 108.162 44.2165 108.162 44.9342Z" fill="#2B2A29"/>
<path d="M114.042 42.1318H117.935V46.9551H118.54V49.3245H117.761V47.7361H113.365V49.3245H112.586V46.9551H113.086C113.751 46.0474 114.071 44.4397 114.042 42.1318ZM114.832 42.9181C114.762 44.7369 114.481 46.0826 113.99 46.9551H116.994V42.9181H114.832Z" fill="#2B2A29"/>
<path d="M119.592 42.1318H120.539V44.4643H123.163V42.1318H124.11V47.7361H123.163V45.2506H120.539V47.7361H119.592V42.1318Z" fill="#2B2A29"/>
<path d="M125.54 42.1318H126.486V46.4063L129.111 42.1318H130.132V47.7361H129.184V43.4881L126.56 47.7361H125.54V42.1318Z" fill="#2B2A29"/>
<path d="M131.552 42.1318H132.499V44.554C132.8 44.554 133.011 44.4959 133.13 44.3798C133.252 44.2637 133.431 43.926 133.666 43.3666C133.852 42.9234 134.003 42.6314 134.118 42.4907C134.234 42.3499 134.367 42.255 134.518 42.2057C134.669 42.1565 134.911 42.1318 135.244 42.1318H135.433V42.9181L135.17 42.9128C134.921 42.9128 134.761 42.9498 134.692 43.0236C134.618 43.101 134.506 43.3315 134.355 43.715C134.212 44.0808 134.08 44.3341 133.961 44.4749C133.842 44.6155 133.657 44.744 133.409 44.86C133.815 44.9691 134.215 45.349 134.608 46L135.643 47.7361H134.603L133.593 46C133.385 45.6516 133.205 45.4229 133.051 45.3139C132.897 45.2014 132.712 45.145 132.499 45.145V47.7361H131.552V42.1318Z" fill="#2B2A29"/>
<path d="M138.758 42.1318H143.297V42.9181H141.498V47.7361H140.557V42.9181H138.758V42.1318Z" fill="#2B2A29"/>
<path d="M147.899 45.9316L148.877 46.0529C148.724 46.6264 148.437 47.0714 148.02 47.3881C147.603 47.7047 147.07 47.8629 146.421 47.8629C145.604 47.8629 144.955 47.6114 144.475 47.1084C143.999 46.6018 143.76 45.8929 143.76 44.9816C143.76 44.0388 144.002 43.3071 144.485 42.7865C144.969 42.2657 145.597 42.0054 146.369 42.0054C147.115 42.0054 147.725 42.2605 148.199 42.7706C148.672 43.2807 148.909 43.9984 148.909 44.9237C148.909 44.98 148.907 45.0643 148.904 45.177H144.738C144.773 45.7926 144.947 46.264 145.259 46.5912C145.57 46.9184 145.96 47.082 146.427 47.082C146.773 47.082 147.07 46.9905 147.315 46.8076C147.561 46.6246 147.755 46.3326 147.899 45.9316ZM144.791 44.3959H147.909C147.867 43.9245 147.748 43.5709 147.552 43.3352C147.251 42.9693 146.86 42.7865 146.379 42.7865C145.945 42.7865 145.578 42.9324 145.279 43.2244C144.985 43.5164 144.823 43.9069 144.791 44.3959Z" fill="#2B2A29"/>
<path d="M150.077 42.1318H154.485V47.7361H153.538V42.9181H151.023V47.7361H150.077V42.1318Z" fill="#2B2A29"/>
<path d="M156.372 42.1318H160.769V47.7361H159.827V42.9181H157.319V45.7097C157.319 46.3605 157.298 46.7897 157.256 46.9972C157.214 47.2049 157.098 47.3861 156.908 47.5409C156.719 47.6956 156.446 47.773 156.089 47.773C155.867 47.773 155.613 47.7589 155.325 47.7307V46.9393H155.741C155.937 46.9393 156.077 46.9199 156.162 46.8812C156.246 46.839 156.302 46.7739 156.33 46.686C156.358 46.5979 156.372 46.3112 156.372 45.8258V42.1318Z" fill="#2B2A29"/>
<path d="M165.846 47.0451C165.495 47.3441 165.156 47.5551 164.831 47.6783C164.508 47.8014 164.161 47.8629 163.789 47.8629C163.176 47.8629 162.704 47.7135 162.374 47.4144C162.044 47.1118 161.88 46.7267 161.88 46.2587C161.88 45.9844 161.941 45.7345 162.064 45.5094C162.191 45.2807 162.353 45.0978 162.553 44.9606C162.756 44.8234 162.985 44.7196 163.237 44.6492C163.422 44.5999 163.703 44.5525 164.078 44.5068C164.843 44.4153 165.405 44.3062 165.767 44.1796C165.771 44.0494 165.772 43.9667 165.772 43.9315C165.772 43.5446 165.683 43.2719 165.504 43.1135C165.262 42.899 164.902 42.7917 164.425 42.7917C163.98 42.7917 163.65 42.8708 163.437 43.0292C163.226 43.184 163.07 43.4601 162.968 43.8576L162.043 43.731C162.127 43.3335 162.265 43.0134 162.458 42.7706C162.652 42.5244 162.93 42.3361 163.295 42.206C163.659 42.0722 164.082 42.0054 164.562 42.0054C165.039 42.0054 165.426 42.0616 165.725 42.1743C166.023 42.2869 166.241 42.4293 166.383 42.6017C166.522 42.7706 166.62 42.9852 166.677 43.2455C166.708 43.4073 166.723 43.6994 166.723 44.1215V45.3881C166.723 46.271 166.743 46.8304 166.781 47.0661C166.823 47.2984 166.905 47.5217 167.023 47.7363H166.035C165.937 47.5393 165.874 47.3089 165.846 47.0451ZM165.767 44.9237C165.423 45.0643 164.907 45.184 164.22 45.2825C163.831 45.3388 163.556 45.4021 163.395 45.4724C163.234 45.5428 163.109 45.6466 163.021 45.7838C162.934 45.9175 162.889 46.067 162.889 46.2323C162.889 46.4856 162.985 46.6967 163.174 46.8657C163.367 47.0345 163.647 47.119 164.016 47.119C164.38 47.119 164.704 47.0397 164.989 46.8815C165.272 46.7196 165.481 46.4997 165.614 46.2217C165.716 46.0072 165.767 45.6906 165.767 45.2719V44.9237Z" fill="#2B2A29"/>
<path d="M61.4785 2.00405C62.8848 0.668017 64.6707 0 66.8361 0C69.0015 0 70.7874 0.668017 72.1937 2.00405C73.6 3.34009 74.3031 4.98204 74.3031 6.9299C74.3031 8.87779 73.6 10.5198 72.1937 11.8557C70.7874 13.1918 69.0015 13.8598 66.8361 13.8598C64.6707 13.8598 62.8848 13.1918 61.4785 11.8557C60.0723 10.5198 59.3691 8.87779 59.3691 6.9299C59.3691 4.98204 60.0723 3.34009 61.4785 2.00405ZM64.9694 5.05696C64.4716 5.55641 64.2226 6.18073 64.2226 6.9299C64.2226 7.67907 64.4716 8.30341 64.9694 8.80286C65.4672 9.30232 66.0894 9.55201 66.8361 9.55201C67.5828 9.55201 68.2051 9.30232 68.7029 8.80286C69.2007 8.30341 69.4495 7.67907 69.4495 6.9299C69.4495 6.18073 69.2007 5.55641 68.7029 5.05696C68.2051 4.55751 67.5828 4.30778 66.8361 4.30778C66.0894 4.30778 65.4672 4.55751 64.9694 5.05696Z" fill="#2B2A29"/>
<path d="M76.1763 13.4854V0.374756H86.6298V4.12065H81.0298V5.24442H82.8964C84.4399 5.24442 85.6652 5.64399 86.574 6.44311C87.4829 7.22974 87.9369 8.20367 87.9369 9.36489C87.9369 10.5261 87.4829 11.5063 86.574 12.3054C85.6652 13.0921 84.4399 13.4854 82.8964 13.4854H76.1763ZM81.0298 9.73946H82.1496C82.4365 9.73946 82.6601 9.65835 82.8221 9.49604C82.996 9.33365 83.083 9.13391 83.083 8.89667C83.083 8.65943 82.996 8.45962 82.8221 8.29731C82.6601 8.135 82.4365 8.05381 82.1496 8.05381H81.0298V9.73946Z" fill="#2B2A29"/>
<path d="M90.9749 2.00405C92.3809 0.668017 94.1665 0 96.3319 0C98.4981 0 100.284 0.668017 101.69 2.00405C103.096 3.34009 103.799 4.98204 103.799 6.9299C103.799 8.87779 103.096 10.5198 101.69 11.8557C100.284 13.1918 98.4981 13.8598 96.3319 13.8598C94.1665 13.8598 92.3809 13.1918 90.9749 11.8557C89.5682 10.5198 88.8652 8.87779 88.8652 6.9299C88.8652 4.98204 89.5682 3.34009 90.9749 2.00405ZM94.4653 5.05696C93.9674 5.55641 93.7192 6.18073 93.7192 6.9299C93.7192 7.67907 93.9674 8.30341 94.4653 8.80286C94.9631 9.30232 95.5858 9.55201 96.3319 9.55201C97.0787 9.55201 97.7015 9.30232 98.1993 8.80286C98.6965 8.30341 98.9454 7.67907 98.9454 6.9299C98.9454 6.18073 98.6965 5.55641 98.1993 5.05696C97.7015 4.55751 97.0787 4.30778 96.3319 4.30778C95.5858 4.30778 94.9631 4.55751 94.4653 5.05696Z" fill="#2B2A29"/>
<path d="M105.673 13.4854V0.374756H115.753V4.68254H110.526V13.4854H105.673Z" fill="#2B2A29"/>
<path d="M117.431 13.4854V0.374756H123.871C125.476 0.374756 126.765 0.830508 127.735 1.74201C128.706 2.65351 129.191 3.82098 129.191 5.24442C129.191 6.66786 128.706 7.83536 127.735 8.74681C126.765 9.65835 125.476 10.1141 123.871 10.1141H122.285V13.4854H117.431ZM122.285 6.36819H123.031C123.442 6.36819 123.759 6.2683 123.983 6.06852C124.22 5.85625 124.338 5.58155 124.338 5.24442C124.338 4.90729 124.22 4.63883 123.983 4.43906C123.759 4.22678 123.442 4.12065 123.031 4.12065H122.285V6.36819Z" fill="#2B2A29"/>
<path d="M130.866 13.4854V0.374756H141.6V4.12065H135.72V5.43171H140.107V8.42846H135.72V9.73946H141.787V13.4854H130.866Z" fill="#2B2A29"/>
<path d="M143.846 13.4854V0.374756H150.194C151.861 0.374756 153.118 0.68067 153.964 1.2925C154.81 1.90433 155.233 2.69097 155.233 3.65241C155.233 4.65132 154.81 5.43171 153.964 5.9936C153.603 6.23084 153.186 6.40564 152.713 6.51802V6.59295C153.311 6.70532 153.84 6.89261 154.3 7.15483C155.358 7.76669 155.886 8.65943 155.886 9.83311C155.886 10.9319 155.445 11.8185 154.561 12.4927C153.678 13.1545 152.346 13.4854 150.567 13.4854H143.846ZM148.7 9.92683H149.82C150.144 9.92683 150.392 9.84563 150.567 9.68332C150.753 9.50849 150.847 9.27751 150.847 8.99032C150.847 8.70312 150.753 8.47841 150.567 8.31602C150.392 8.14126 150.144 8.05381 149.82 8.05381H148.7V9.92683ZM148.7 5.61901H149.259C149.882 5.61901 150.194 5.33807 150.194 4.77618C150.194 4.2143 149.882 3.93336 149.259 3.93336H148.7V5.61901Z" fill="#2B2A29"/>
<path d="M59.3691 33.6253V29.2239L59.5931 29.2801C59.7674 29.305 59.9105 29.3175 60.0225 29.3175C60.4332 29.3175 60.7691 29.2052 61.0305 28.9804C61.3043 28.7431 61.5283 28.2812 61.7026 27.5944C61.8892 26.9077 61.9826 25.9836 61.9826 24.8224V20.5146H73.0897V33.6253H68.2362V24.8224H66.6495C66.6495 26.533 66.525 27.994 66.2761 29.2052C66.0272 30.4163 65.6601 31.3653 65.1747 32.052C64.7018 32.7388 64.1604 33.2382 63.5507 33.5503C62.9409 33.8501 62.2315 33.9999 61.4226 33.9999C60.8874 33.9999 60.3834 33.9374 59.9105 33.8126C59.6616 33.7501 59.4811 33.6877 59.3691 33.6253Z" fill="#2B2A29"/>
<path d="M75.6975 33.6253V20.5147H80.5511V24.8225H81.5777C81.8638 23.961 82.3119 23.1806 82.922 22.4813C84.2782 20.9205 86.0393 20.1401 88.2047 20.1401C90.2081 20.1401 91.8571 20.7956 93.1516 22.1067C94.4587 23.4053 95.1119 25.0597 95.1119 27.0701C95.1119 29.0803 94.4587 30.741 93.1516 32.0521C91.8571 33.3507 90.2081 34 88.2047 34C85.9152 34 84.1229 33.1883 82.8284 31.5651C82.2562 30.8659 81.8393 30.0543 81.5777 29.1303H80.5511V33.6253H75.6975ZM86.7297 28.9991C87.128 29.4612 87.6199 29.6921 88.2047 29.6921C88.7896 29.6921 89.2748 29.4612 89.6605 28.9991C90.0588 28.5372 90.2579 27.8941 90.2579 27.0701C90.2579 26.2459 90.0588 25.6029 89.6605 25.1409C89.2748 24.6789 88.7896 24.4479 88.2047 24.4479C87.6199 24.4479 87.128 24.6789 86.7297 25.1409C86.344 25.6029 86.1515 26.2459 86.1515 27.0701C86.1515 27.8941 86.344 28.5372 86.7297 28.9991Z" fill="#2B2A29"/>
<path d="M96.9719 33.6253V20.5146H101.826V24.6351L104.812 20.5146H110.039L105.839 25.9462L110.412 33.6253H105.093L102.666 29.4112L101.826 30.535V33.6253H96.9719Z" fill="#2B2A29"/>
<path d="M120.588 28.3811L123.482 31.3778C123.084 31.8648 122.604 32.3018 122.045 32.6889C120.75 33.5629 119.269 34 117.602 34C115.436 34 113.65 33.3319 112.244 31.9959C110.838 30.6598 110.134 29.0179 110.134 27.0701C110.134 25.1222 110.838 23.4802 112.244 22.1442C113.65 20.8082 115.436 20.1401 117.602 20.1401C119.269 20.1401 120.75 20.5771 122.045 21.4512C122.604 21.8382 123.084 22.2753 123.482 22.7622L120.588 25.759C120.414 25.5467 120.171 25.3282 119.86 25.1035C119.164 24.6664 118.473 24.4479 117.788 24.4479C116.954 24.4479 116.276 24.6977 115.754 25.1971C115.243 25.684 114.988 26.3084 114.988 27.0701C114.988 27.8317 115.243 28.4623 115.754 28.9617C116.276 29.4486 116.954 29.6921 117.788 29.6921C118.548 29.6921 119.238 29.4736 119.86 29.0366C120.134 28.8618 120.376 28.6433 120.588 28.3811Z" fill="#2B2A29"/>
</g>
<defs>
<clipPath id="clip0_105_1150">
<rect width="168.794" height="50" fill="white"/>
</clipPath>
</defs>
</svg>
