<svg width="165" height="35" viewBox="0 0 165 35" fill="none" xmlns="http://www.w3.org/2000/svg">
<path d="M59.9323 19.123V17.5829H53.7935V19.893H56.8629V20.2781C56.8629 22.2032 55.3282 23.3583 53.4098 23.3583C51.1078 23.3583 49.5731 21.4332 49.5731 18.3529C49.5731 15.2727 51.1078 13.3476 53.4098 13.3476C54.9445 13.3476 56.4792 14.1176 56.8629 15.6577H59.9323C59.5486 12.5775 56.8629 10.6524 53.4098 10.6524C49.1894 10.6524 46.5037 13.3476 46.5037 18.3529C46.5037 22.9733 49.1894 26.0535 53.4098 26.0535C57.2466 25.6684 59.9323 23.3583 59.9323 19.123ZM64.9201 25.2834V10.6524H61.8507V25.2834H64.9201ZM67.2222 10.6524V25.2834H72.9773C77.1977 25.2834 79.8835 22.5882 79.8835 17.9679C79.8835 13.3476 77.1977 10.6524 72.9773 10.6524H67.2222ZM70.2916 13.3476H72.5936C75.2794 13.3476 76.814 14.8877 76.814 17.9679C76.814 21.0481 75.2794 22.9733 72.5936 22.9733H70.2916V13.3476ZM84.8712 12.9626H87.557C89.0917 12.9626 89.859 13.7326 89.859 15.2727C89.859 16.8128 89.0917 17.5829 87.557 17.5829H84.8712V12.9626ZM84.8712 19.893H87.1733L89.859 25.2834H93.3121L90.6264 19.508C92.1611 18.738 93.3121 17.1979 93.3121 15.2727C93.3121 12.1925 91.3937 10.6524 87.9407 10.6524H81.8018V25.2834H84.8712V19.893ZM101.753 10.6524C97.5325 10.6524 94.8468 13.7326 94.8468 18.3529C94.8468 22.9733 97.5325 26.0535 101.753 26.0535C105.973 26.0535 108.659 22.9733 108.659 18.3529C109.043 13.3476 105.973 10.6524 101.753 10.6524ZM101.753 12.9626C104.055 12.9626 105.59 14.8877 105.59 17.9679C105.59 21.0481 104.055 22.9733 101.753 22.9733C99.4509 22.9733 97.9162 21.0481 97.9162 17.9679C97.9162 14.8877 99.4509 12.9626 101.753 12.9626ZM120.169 22.9733H113.647V10.6524H110.578V25.2834H120.169V22.9733ZM128.227 10.6524C124.006 10.6524 121.32 13.7326 121.32 18.3529C121.32 22.9733 124.006 26.0535 128.227 26.0535C132.447 26.0535 135.133 22.9733 135.133 18.3529C135.133 13.3476 132.447 10.6524 128.227 10.6524ZM128.227 12.9626C130.529 12.9626 132.063 14.8877 132.063 17.9679C132.063 21.0481 130.529 22.9733 128.227 22.9733C125.925 22.9733 124.39 21.0481 124.39 17.9679C124.006 14.8877 125.541 12.9626 128.227 12.9626ZM143.574 25.6684C147.027 25.6684 149.712 23.7433 150.096 20.2781H147.027C146.643 22.2032 145.492 22.9733 143.574 22.9733C141.272 22.9733 139.737 21.0481 139.737 17.9679C139.737 14.8877 141.272 12.9626 143.574 12.9626C145.492 12.9626 146.643 14.1176 147.027 16.0428H150.096C149.712 12.5775 147.027 10.6524 143.574 10.6524C139.353 10.6524 136.667 13.3476 136.667 18.3529C136.667 22.9733 139.353 25.6684 143.574 25.6684ZM155.084 25.2834V20.6631L156.619 19.123L160.839 25.2834H164.676L158.921 17.1979L164.292 10.6524H160.839L155.468 17.1979V10.6524H152.398V25.2834H155.084Z" fill="#020302"/>
<path d="M16.577 34.5241H0.462646V0.641708H3.91572V31.4438H16.577V34.5241Z" fill="#020302"/>
<path d="M32.3077 34.5241H28.8547V3.72192H16.1934V0.641708H31.9241L32.3077 34.5241Z" fill="#020302"/>
<path d="M22.7159 20.6631C22.7159 24.1283 20.0301 26.8235 16.5771 26.8235C13.124 26.8235 10.4382 24.1283 10.4382 20.6631C10.4382 15.2727 16.5771 7.57219 16.5771 7.57219C16.5771 7.57219 22.7159 15.6577 22.7159 20.6631Z" fill="#020302"/>
</svg>
