<svg width="141" height="31" viewBox="0 0 141 31" fill="none" xmlns="http://www.w3.org/2000/svg">
<path fill-rule="evenodd" clip-rule="evenodd" d="M4.98778 9.64172H0V20.8075H4.98778C3.83676 17.3422 3.83676 13.107 4.98778 9.64172ZM13.4287 15.0321C13.4287 11.1818 16.4981 8.10161 20.3348 8.10161H25.3226C26.09 6.17647 27.6247 4.63637 29.1594 3.09626C22.2532 -1.52406 13.045 -0.36898 8.44087 6.5615C3.83676 13.492 4.98778 22.3476 11.5103 27.3529C16.8817 31.2032 23.7879 31.2032 29.1594 27.3529C27.6247 25.8128 26.4736 24.2727 25.7063 22.3476H20.7185C16.8817 22.3476 13.4287 18.8824 13.4287 15.0321ZM14.9634 15.0321C14.9634 18.1123 17.2654 20.4225 20.3348 20.4225H24.5553C23.4042 16.9572 23.4042 13.107 24.5553 9.25669H20.3348C17.6491 9.64172 14.9634 12.3369 14.9634 15.0321ZM50.2615 0.7861V9.64172H39.9023C36.8329 9.64172 34.5308 11.9519 34.5308 15.0321C34.5308 18.1123 36.8329 20.4225 39.9023 20.8075H50.2615V29.6631H59.8534V0.7861H50.2615ZM39.9023 22.3476C36.0655 22.3476 32.9961 19.2674 32.9961 15.4171C32.9961 13.492 33.7635 11.9519 34.9145 10.4118C36.4492 8.87166 37.9839 8.10161 39.9023 8.10161H48.7268V3.09626C42.2043 -1.52406 32.9961 -0.36898 28.0083 6.17647C23.0205 12.7219 24.5553 21.9626 31.0777 26.9679C36.4492 30.8182 43.3554 30.8182 48.7268 26.9679V21.9626L39.9023 22.3476ZM71.3637 7.33155C70.5963 7.71658 69.829 8.10161 69.0616 8.10161C67.1433 8.10161 65.6086 6.94653 65.6086 5.02139V4.63637C65.6086 2.71123 66.7596 1.17113 68.678 1.17113H69.0616C69.829 1.17113 70.5963 1.55615 70.98 1.94118L70.5963 2.71123C70.2127 2.32621 69.4453 2.32621 69.0616 2.32621C67.9106 2.32621 66.7596 3.09626 66.7596 4.25134C66.7596 4.25134 66.7596 4.25134 66.7596 4.63637C66.7596 5.79145 67.5269 6.94653 68.678 6.94653C68.678 6.94653 68.678 6.94653 69.0616 6.94653C69.4453 6.94653 70.2127 6.94653 70.5963 6.5615L71.3637 7.33155ZM76.7352 2.32621H73.6657V7.71658H72.5147V1.17113H77.8862V7.71658H76.7352V2.32621ZM79.8046 1.17113H83.6413V2.32621H80.9556V3.86631H83.2576V5.02139H80.9556V6.5615H83.6413V7.71658H79.8046V1.17113ZM85.176 1.17113H86.327V6.5615H89.3965V1.17113H90.5475V6.5615H91.3148V8.87166H90.1638V7.71658H85.176V1.17113ZM92.4659 7.71658V1.17113H93.6169V5.79145L97.07 1.17113H98.221V7.71658H97.07V3.09626L93.6169 7.71658H92.4659ZM101.674 1.17113H102.825L105.511 7.71658H104.36L103.592 6.17647H100.907L100.139 7.71658H98.9883L101.674 1.17113ZM101.29 5.02139H103.209L102.058 2.71123L101.29 5.02139ZM110.499 2.32621H108.58V3.48129C108.197 7.33155 107.429 8.10161 105.895 7.71658V6.5615C106.278 6.5615 107.046 6.5615 107.429 2.32621V1.17113H111.65V7.71658H110.499V2.32621ZM114.719 3.48129C115.103 3.48129 115.103 3.48129 115.486 3.48129C117.021 3.48129 118.172 4.25134 118.172 5.79145C118.172 7.33155 117.021 8.10161 115.486 8.10161C114.719 8.10161 114.335 8.10161 113.952 8.10161V1.55615H115.103L114.719 3.48129ZM114.719 4.63637V6.94653C115.103 6.94653 115.103 6.94653 115.486 6.94653C116.254 6.94653 117.021 6.5615 117.021 5.79145C117.021 5.02139 116.637 4.63637 115.486 4.63637C115.103 4.63637 115.103 4.63637 114.719 4.63637ZM123.544 5.02139H120.474V7.71658H119.323V1.17113H120.474V3.86631H123.544V1.17113H124.695V7.71658H123.544V5.02139ZM127.764 3.48129C128.148 3.48129 128.148 3.48129 128.531 3.48129C130.066 3.48129 130.833 4.25134 130.833 5.79145C130.833 7.33155 129.682 8.10161 128.148 8.10161C127.38 8.10161 126.997 8.10161 126.613 8.10161V1.55615H127.764V3.48129ZM127.764 4.63637V6.94653C128.148 6.94653 128.148 6.94653 128.531 6.94653C129.299 6.94653 129.682 6.5615 129.682 5.79145C129.682 5.02139 129.299 4.63637 128.531 4.63637C128.148 4.63637 127.764 4.63637 127.764 4.63637ZM131.601 1.17113H132.752V7.71658H131.601V1.17113ZM134.67 1.17113H138.507V2.32621H135.821V3.86631H138.123V5.02139H135.821V6.5615H138.507V7.71658H134.67V1.17113ZM71.3637 18.1123C70.5963 18.4973 69.829 18.8824 69.0616 18.8824C67.1433 18.8824 65.6086 17.3422 65.6086 15.4171C65.6086 13.492 67.1433 11.9519 69.0616 11.9519C69.829 11.9519 70.5963 12.3369 70.98 12.7219L70.5963 13.492C70.2127 13.107 69.4453 13.107 69.0616 13.107C67.9106 13.107 66.7596 13.877 66.7596 15.0321C66.7596 15.0321 66.7596 15.0321 66.7596 15.4171C66.7596 16.5722 67.5269 17.7273 68.678 17.7273C68.678 17.7273 68.678 17.7273 69.0616 17.7273C69.4453 17.7273 70.2127 17.7273 70.5963 17.3422L71.3637 18.1123ZM72.5147 18.8824V12.3369H73.6657V16.9572L77.1188 12.3369H78.2699V18.8824H77.1188V14.262L73.6657 18.8824H72.5147ZM85.176 18.1123C84.4087 18.4973 83.6413 18.8824 82.874 18.8824C80.9556 18.8824 79.4209 17.3422 79.4209 15.4171C79.4209 13.492 80.9556 11.9519 82.874 11.9519C83.6413 11.9519 84.4087 12.3369 84.7923 12.7219L84.4087 13.877C84.025 13.492 83.2576 13.492 82.874 13.492C81.7229 13.492 80.5719 14.262 80.5719 15.4171C80.5719 15.4171 80.5719 15.4171 80.5719 15.8021C80.5719 16.9572 81.3393 18.1123 82.4903 18.1123C82.4903 18.1123 82.4903 18.1123 82.874 18.1123C83.2576 18.1123 84.025 18.1123 84.4087 17.7273L85.176 18.1123ZM85.5597 12.3369H90.9312V13.492H88.6291V18.8824H87.4781V13.492H85.176L85.5597 12.3369ZM92.0822 12.3369H95.9189V13.492H93.2332V15.0321H95.5353V16.1872H93.2332V17.7273H95.9189V18.8824H92.0822V12.3369ZM97.4536 12.3369H98.6047L100.907 15.4171L103.209 12.3369H104.36V18.8824H103.209V14.262L101.29 17.3422L98.9883 14.262V18.8824H97.8373L97.4536 12.3369ZM107.046 14.6471C107.429 14.6471 107.429 14.6471 107.813 14.6471C109.348 14.6471 110.115 15.4171 110.115 16.9572C110.115 18.4973 108.964 19.2674 107.429 19.2674C106.662 19.2674 106.278 19.2674 105.895 19.2674V12.7219H107.046V14.6471ZM107.046 15.8021V18.1123C107.429 18.1123 107.429 18.1123 107.813 18.1123C108.58 18.1123 108.964 17.7273 108.964 16.9572C108.964 16.1872 108.58 15.8021 107.813 15.8021C107.429 15.8021 107.429 15.8021 107.046 15.8021ZM111.266 12.3369H112.417V18.8824H111.266V12.3369ZM66.3759 30.0481V23.5027H67.5269V28.123L70.98 23.5027H72.131V30.0481H70.98V25.4278L67.5269 30.0481H66.3759ZM74.8168 23.5027H80.1882V24.6578H77.8862V30.0481H76.7352V24.6578H74.4331L74.8168 23.5027ZM81.3393 23.5027H85.176V24.6578H82.4903V26.1979H84.7923V27.3529H82.4903V28.893H85.176V30.0481H81.3393V23.5027ZM89.7801 26.5829L92.0822 30.0481H90.5475L89.0128 27.738L87.4781 30.0481H85.9434L88.2454 26.5829L86.327 23.5027H87.8617L89.3965 25.8128L90.9312 23.5027H92.4659L89.7801 26.5829ZM97.4536 27.3529H94.3842V30.0481H93.2332V23.5027H94.3842V26.1979H97.4536V23.5027H98.6047V30.0481H97.4536V27.3529ZM103.592 23.1176C105.511 23.1176 107.046 24.2727 107.046 26.1979V26.5829C107.046 28.508 105.511 30.0481 103.592 30.0481C103.592 30.0481 103.592 30.0481 103.209 30.0481C101.29 30.0481 99.7557 28.893 99.7557 26.9679V26.5829C99.7557 25.0428 101.29 23.5027 103.592 23.1176C103.209 23.1176 103.209 23.1176 103.592 23.1176ZM103.592 28.893C104.743 28.893 105.895 28.123 105.895 26.9679C105.895 26.9679 105.895 26.9679 105.895 26.5829C105.895 25.4278 105.127 24.2727 103.592 24.2727C102.441 24.2727 101.29 25.0428 101.29 26.5829C101.29 28.123 102.058 28.893 103.592 28.893C103.209 28.893 103.209 28.893 103.592 28.893ZM112.033 24.6578H110.115V25.8128C109.731 29.6631 108.964 30.4332 107.429 30.0481V28.893C107.813 28.893 108.58 28.893 108.964 24.6578V23.5027H113.184V30.0481H112.033V24.6578ZM117.788 23.1176C119.707 23.1176 121.242 24.2727 121.242 26.1979C121.242 26.1979 121.242 26.1979 121.242 26.5829C121.242 28.508 119.707 30.0481 117.788 30.0481C117.788 30.0481 117.788 30.0481 117.405 30.0481C115.486 30.0481 113.952 28.893 113.952 26.9679V26.5829C114.335 25.0428 115.87 23.5027 117.788 23.1176ZM117.788 28.893C118.939 28.893 120.091 28.123 120.091 26.9679C120.091 26.9679 120.091 26.9679 120.091 26.5829C120.091 25.4278 119.323 24.2727 117.788 24.2727C116.637 24.2727 115.486 25.0428 115.486 26.5829C115.486 26.5829 115.486 26.5829 115.486 26.9679C115.486 28.123 116.637 28.893 117.788 28.893ZM122.776 23.5027H126.613V24.6578H123.927V30.0481H122.776V23.5027ZM127.38 30.0481V23.5027H128.531V28.123L131.984 23.5027H133.135V30.0481H131.984V25.4278L128.531 30.0481H127.38ZM135.054 30.0481V23.5027H136.205V28.123L139.658 23.5027H140.809V30.0481H139.658V25.4278L136.205 30.0481H135.054Z" fill="#020302"/>
</svg>
