<svg width="477" height="477" viewBox="0 0 477 477" fill="none" xmlns="http://www.w3.org/2000/svg">
<path opacity="0.2" d="M166.955 286.012C163.922 281.491 161.3 276.673 159.139 271.599C161.25 276.545 163.851 281.35 166.955 286.012Z" fill="white"/>
<path opacity="0.2" d="M189.378 308.918C188.107 308.025 186.872 307.097 185.653 306.133C186.886 307.083 188.12 308.04 189.378 308.918Z" fill="white"/>
<path opacity="0.2" d="M196.318 313.328C195.318 312.755 194.344 312.145 193.367 311.536C194.344 312.145 195.324 312.755 196.318 313.328Z" fill="white"/>
<path opacity="0.2" d="M158.955 271.098C158.01 268.838 157.167 266.522 156.415 264.167C157.16 266.506 157.996 268.818 158.955 271.098Z" fill="white"/>
<path opacity="0.2" d="M155.847 262.255C155.337 260.533 154.904 258.776 154.5 257.012C154.891 258.776 155.345 260.527 155.847 262.255Z" fill="white"/>
<path opacity="0.2" d="M212.484 320.514C210.483 319.863 208.51 319.146 206.573 318.352C208.518 319.153 210.497 319.869 212.484 320.514Z" fill="white"/>
<path opacity="0.2" d="M204.245 317.345C202.732 316.68 201.25 315.949 199.788 315.197C201.256 315.963 202.747 316.68 204.245 317.345Z" fill="white"/>
<path opacity="0.2" d="M225.731 323.644C224.696 323.481 223.645 323.367 222.624 323.17C223.652 323.36 224.696 323.495 225.731 323.644Z" fill="white"/>
<path opacity="0.2" d="M220.141 322.603C218.126 322.149 216.125 321.661 214.168 321.072C216.139 321.661 218.134 322.163 220.141 322.603Z" fill="white"/>
<path d="M419.185 240.122C419.185 269.155 411.902 297.415 397.329 324.86C393.864 331.505 388.663 339.457 381.753 348.692C379.004 352.601 372.809 359.46 363.136 369.284C355.497 376.37 348.928 381.853 343.441 385.756C311.267 408.149 276.295 419.349 238.493 419.349C216.857 419.349 195.435 415.377 174.229 407.431C136.287 392.544 106.573 367.987 85.078 333.747C66.9078 303.833 57.8076 272.631 57.8076 240.122V236.872C57.8076 207.98 65.1721 179.728 79.8831 152.135C83.3425 145.495 88.5435 137.545 95.4677 128.294C98.0609 124.401 104.19 117.527 113.857 107.71C121.646 100.625 128.278 95.2178 133.765 91.4516C165.931 68.9155 200.849 57.6454 238.493 57.6454C260.278 57.6454 281.701 61.6246 302.764 69.5609C340.707 84.5932 370.493 109.15 392.136 143.248C410.164 173.153 419.185 204.363 419.185 236.872V240.122ZM394.716 113.165C391.25 108.398 385.041 101.666 376.098 92.998C367.134 84.6131 359.643 78.3294 353.582 74.1373C318.064 49.9987 279.668 37.9243 238.386 37.9243C201.869 37.9243 167.512 47.4592 135.323 66.5549C126.806 71.6038 118.435 77.5979 110.214 84.5427C107.904 85.842 101.549 91.9122 91.1505 102.752C83.4971 111.285 77.006 119.457 71.6688 127.259C65.3127 137.097 60.2665 146.27 56.5119 154.789C44.2438 181.97 38.1128 209.08 38.1128 236.106V240.88C38.1128 263.862 42.6628 287.215 51.7489 310.921C55.6461 321.475 60.9113 332.237 67.5586 343.231C71.5924 349.736 76.3614 356.452 81.8458 363.397C85.4537 368.305 91.7336 375.179 100.691 383.989C109.783 392.238 117.358 398.452 123.425 402.644C158.787 426.917 197.114 439.068 238.386 439.068C270.873 439.068 301.828 431.415 331.274 416.085C371.264 394.685 400.993 363.397 420.483 322.199C432.758 294.867 438.881 267.765 438.881 240.88V236.106C438.881 217.173 435.712 197.44 429.362 176.919C424.742 163.755 419.965 152.561 415.061 143.304C409.725 133.473 402.942 123.428 394.716 113.165Z" fill="white"/>
<path opacity="0.2" d="M167.659 287.028C168.622 288.429 169.572 289.84 170.621 291.222C171.918 293.383 175.745 297.437 182.095 303.355C182.605 303.781 183.13 304.141 183.64 304.561C177.551 299.473 172.179 293.568 167.659 287.028Z" fill="white"/>
<path opacity="0.6" d="M457.283 239.251C457.283 277.833 447.256 314.526 427.2 349.348C423.005 356.427 417.228 364.81 409.874 374.486C399.767 387.056 388.505 398.405 376.096 408.507C366.275 416.308 357.394 422.522 349.466 427.148C314.236 447.229 277.868 457.267 240.342 457.267H236.658C211.824 457.267 186.716 452.648 161.304 443.404C146.874 437.767 134.168 431.481 123.204 424.558C117.862 421.373 111.504 416.889 104.147 411.108C98.9525 407.648 91.009 400.49 80.3286 389.652C69.7978 378.24 61.7825 368.272 56.2903 359.747C31.9047 322.18 19.7009 282.017 19.7009 239.251V237.741C19.7009 199.308 29.7372 162.614 49.7916 127.644C53.9881 120.707 59.7636 112.33 67.12 102.506C77.2242 90.0862 88.4158 78.7355 100.69 68.4869C110.64 60.6753 119.59 54.4702 127.526 49.8516C162.607 29.7565 198.984 19.7131 236.658 19.7131H240.342C265.167 19.7131 290.206 24.3437 315.469 33.587C329.905 39.3678 342.605 45.7296 353.581 52.6606C359.059 55.6887 365.41 60.1022 372.632 65.8831C377.961 69.4923 385.906 76.6427 396.443 87.3331C407.129 98.7458 415.209 108.719 420.695 117.245C445.087 154.805 457.283 194.967 457.283 237.741V239.251ZM452.09 132.625C449.062 126.275 444.798 118.749 439.311 110.089C434.557 102.576 427.696 93.4056 418.753 82.566C412.978 75.9346 406.543 69.2812 399.476 62.6277C390.815 54.6894 382.228 47.8872 373.716 42.2612C360.875 33.4442 348.599 26.4288 336.908 21.2372C305.144 7.07972 272.813 0 239.91 0H237.089C195.95 0 156.54 10.7673 118.866 32.282C109.342 37.6366 99.6052 44.3543 89.6417 52.4474C84.8784 55.7671 77.0054 62.8469 66.0353 73.6846C57.9556 82.6364 51.244 90.6594 45.9004 97.7327C37.6741 109.295 31.0328 120.062 25.9946 130.021C8.66819 164.7 0 200.315 0 236.874V240.337C0 272.846 7.07319 305.063 21.2176 336.991C28.4394 352.894 37.5395 368.06 48.5019 382.502C52.2584 388.006 59.6852 396.519 70.7982 408.08C80.1878 416.889 87.982 423.678 94.1915 428.445C106.457 437.405 117.797 444.633 128.187 450.117C163.395 468.04 199.558 477 236.658 477H240.342C267.47 477 294.471 472.005 321.317 462.04C336.325 456.691 351.195 449.399 365.92 440.149C371.986 436.398 378.981 431.411 386.927 425.204C392.405 421.16 400.341 413.855 410.737 403.313C418.972 394.348 425.677 386.332 430.865 379.253C439.241 367.698 445.953 356.93 451.005 346.965C468.331 312.284 477 276.754 477 240.337V236.874C477 201.471 468.687 166.728 452.09 132.625Z" fill="white"/>
<path opacity="0.2" d="M153.74 253.338C153.591 252.566 153.498 251.779 153.378 251C153.492 251.779 153.6 252.566 153.74 253.338Z" fill="white"/>
<path opacity="0.2" d="M206.575 318.355C205.795 318.036 205.014 317.697 204.234 317.349C205.014 317.697 205.789 318.036 206.575 318.355Z" fill="#E95329"/>
<path opacity="0.2" d="M214.152 321.064C213.59 320.895 213.036 320.7 212.474 320.518C213.036 320.7 213.585 320.895 214.152 321.064Z" fill="#E95329"/>
<path opacity="0.2" d="M222.623 323.169C221.787 323.012 220.97 322.787 220.134 322.603C220.97 322.793 221.787 323.007 222.623 323.169Z" fill="#E95329"/>
<path opacity="0.2" d="M199.79 315.198C198.625 314.595 197.463 313.987 196.312 313.327C197.455 313.979 198.611 314.604 199.79 315.198Z" fill="#E95329"/>
<path opacity="0.2" d="M185.656 306.134C184.983 305.617 184.309 305.113 183.641 304.575C184.295 305.113 184.988 305.609 185.656 306.134Z" fill="#E95329"/>
<path opacity="0.2" d="M167.653 287.016C167.428 286.685 167.176 286.356 166.957 286.026C167.182 286.364 167.42 286.685 167.653 287.016Z" fill="#E95329"/>
<path opacity="0.2" d="M154.5 257.008C154.231 255.791 153.953 254.577 153.74 253.337C153.967 254.577 154.222 255.797 154.5 257.008Z" fill="#E95329"/>
<path opacity="0.2" d="M159.141 271.592C159.071 271.43 159.015 271.27 158.952 271.109C159.015 271.27 159.077 271.43 159.141 271.592Z" fill="#E95329"/>
<path opacity="0.2" d="M156.413 264.166C156.216 263.535 156.03 262.898 155.846 262.26C156.036 262.898 156.216 263.535 156.413 264.166Z" fill="#E95329"/>
<path opacity="0.2" d="M193.369 311.534C192.028 310.696 190.694 309.841 189.375 308.918C190.674 309.832 192.013 310.69 193.369 311.534Z" fill="#E95329"/>
</svg>
