<svg width="771" height="771" viewBox="0 0 771 771" fill="none" xmlns="http://www.w3.org/2000/svg">
<path opacity="0.2" d="M269.845 462.273C264.942 454.965 260.705 447.178 257.211 438.978C260.623 446.971 264.828 454.737 269.845 462.273Z" fill="white"/>
<path opacity="0.2" d="M306.085 499.294C304.031 497.852 302.035 496.352 300.065 494.793C302.058 496.329 304.053 497.875 306.085 499.294Z" fill="white"/>
<path opacity="0.2" d="M317.302 506.422C315.687 505.497 314.113 504.51 312.533 503.525C314.113 504.51 315.697 505.497 317.302 506.422Z" fill="white"/>
<path opacity="0.2" d="M256.914 438.168C255.386 434.515 254.024 430.772 252.809 426.966C254.012 430.746 255.364 434.482 256.914 438.168Z" fill="white"/>
<path opacity="0.2" d="M251.892 423.875C251.066 421.092 250.367 418.251 249.714 415.4C250.345 418.251 251.079 421.082 251.892 423.875Z" fill="white"/>
<path opacity="0.2" d="M343.432 518.036C340.198 516.984 337.008 515.825 333.878 514.542C337.022 515.837 340.22 516.994 343.432 518.036Z" fill="white"/>
<path opacity="0.2" d="M330.115 512.915C327.67 511.841 325.274 510.658 322.912 509.444C325.284 510.682 327.693 511.841 330.115 512.915Z" fill="white"/>
<path opacity="0.2" d="M364.842 523.096C363.168 522.833 361.471 522.647 359.819 522.33C361.481 522.638 363.168 522.855 364.842 523.096Z" fill="white"/>
<path opacity="0.2" d="M355.807 521.414C352.55 520.68 349.316 519.891 346.153 518.939C349.338 519.891 352.564 520.703 355.807 521.414Z" fill="white"/>
<path opacity="0.6" d="M677.516 388.102C677.516 435.027 665.744 480.702 642.191 525.061C636.59 535.8 628.184 548.654 617.015 563.58C612.572 569.898 602.559 580.984 586.926 596.862C574.578 608.315 563.961 617.177 555.093 623.485C503.092 659.678 446.567 677.78 385.468 677.78C350.499 677.78 315.875 671.362 281.601 658.518C220.277 634.457 172.25 594.766 137.509 539.424C108.141 491.076 93.4325 440.645 93.4325 388.102V382.849C93.4325 336.152 105.335 290.489 129.112 245.891C134.704 235.159 143.11 222.31 154.301 207.357C158.493 201.066 168.399 189.955 184.023 174.089C196.612 162.637 207.332 153.898 216.199 147.81C268.188 111.386 324.625 93.1705 385.468 93.1705C420.68 93.1705 455.305 99.6019 489.348 112.429C550.674 136.725 598.816 176.415 633.797 231.527C662.935 279.862 677.516 330.306 677.516 382.849V388.102ZM637.966 182.906C632.365 175.201 622.329 164.32 607.875 150.31C593.386 136.758 581.28 126.601 571.484 119.826C514.076 80.8113 452.019 61.2959 385.296 61.2959C326.275 61.2959 270.744 76.7068 218.719 107.571C204.952 115.731 191.422 125.419 178.136 136.644C174.402 138.744 164.13 148.555 147.324 166.075C134.954 179.867 124.462 193.074 115.836 205.684C105.563 221.585 97.4067 236.411 91.3382 250.181C71.5097 294.113 61.6003 337.929 61.6003 381.611V389.326C61.6003 426.472 68.9544 464.216 83.6399 502.532C89.9388 519.59 98.4489 536.984 109.193 554.754C115.712 565.267 123.42 576.122 132.285 587.347C138.116 595.279 148.266 606.39 162.743 620.629C177.438 633.962 189.682 644.005 199.488 650.781C256.642 690.013 318.59 709.651 385.296 709.651C437.804 709.651 487.835 697.283 535.427 672.506C600.062 637.918 648.113 587.347 679.614 520.76C699.452 476.585 709.349 432.781 709.349 389.326V381.611C709.349 351.011 704.228 319.116 693.965 285.949C686.497 264.672 678.776 246.58 670.85 231.617C662.226 215.729 651.263 199.493 637.966 182.906Z" fill="white"/>
<path opacity="0.2" d="M270.983 463.914C272.539 466.18 274.074 468.459 275.769 470.693C277.867 474.186 284.052 480.739 294.315 490.304C295.139 490.993 295.987 491.574 296.811 492.253C286.97 484.029 278.288 474.486 270.983 463.914Z" fill="white"/>
<path opacity="0.2" d="M739.092 386.694C739.092 449.052 722.887 508.359 690.47 564.64C683.69 576.082 674.353 589.631 662.467 605.269C646.132 625.587 627.929 643.929 607.873 660.257C591.999 672.866 577.646 682.909 564.83 690.386C507.889 722.842 449.109 739.066 388.458 739.066H382.503C342.365 739.066 301.783 731.601 260.71 716.661C237.388 707.549 216.851 697.39 199.13 686.2C190.496 681.052 180.22 673.805 168.33 664.461C159.934 658.869 147.095 647.299 129.833 629.783C112.812 611.337 99.8571 595.227 90.9803 581.447C51.5666 520.73 31.8419 455.815 31.8419 386.694V384.253C31.8419 322.136 48.0632 262.829 80.4766 206.307C87.2593 195.096 96.594 181.556 108.484 165.677C124.815 145.604 142.904 127.258 162.742 110.693C178.824 98.0676 193.289 88.0385 206.116 80.5736C262.816 48.0945 321.611 31.8616 382.503 31.8616H388.458C428.581 31.8616 469.05 39.346 509.883 54.2856C533.215 63.629 553.742 73.9114 571.483 85.1137C580.337 90.0079 590.6 97.1414 602.273 106.485C610.887 112.318 623.728 123.875 640.758 141.154C658.03 159.6 671.089 175.72 679.957 189.499C719.381 250.207 739.092 315.118 739.092 384.253V386.694ZM730.699 214.357C725.805 204.094 718.913 191.93 710.046 177.933C702.36 165.791 691.272 150.969 676.818 133.449C667.483 122.731 657.083 111.977 645.66 101.223C631.663 88.3927 617.783 77.3985 604.025 68.3055C583.271 54.0548 563.43 42.716 544.534 34.325C493.194 11.4427 440.939 0 387.759 0H383.2C316.708 0 253.011 17.4029 192.12 52.1764C176.726 60.8308 160.989 71.6885 144.885 84.7692C137.186 90.1347 124.461 101.577 106.731 119.094C93.6718 133.563 82.824 146.53 74.1874 157.962C60.8915 176.65 50.1574 194.052 42.0143 210.148C14.0101 266.199 0 323.763 0 382.853V388.449C0 440.992 11.4322 493.064 34.2933 544.669C45.9657 570.372 60.674 594.883 78.3921 618.227C84.4637 627.122 96.4673 640.882 114.429 659.568C129.605 673.805 142.203 684.778 152.239 692.482C172.064 706.964 190.392 718.647 207.185 727.51C264.09 756.478 322.54 770.96 382.503 770.96H388.458C432.303 770.96 475.944 762.887 519.335 746.781C543.592 738.136 567.625 726.35 591.425 711.4C601.23 705.336 612.535 697.276 625.378 687.244C634.232 680.709 647.059 668.901 663.862 651.863C677.172 637.372 688.009 624.417 696.393 612.974C709.932 594.298 720.779 576.895 728.945 560.789C756.949 504.735 770.96 447.31 770.96 388.449V382.853C770.96 325.632 757.524 269.478 730.699 214.357Z" fill="white"/>
<path opacity="0.2" d="M248.485 409.463C248.245 408.215 248.095 406.942 247.9 405.683C248.085 406.942 248.258 408.215 248.485 409.463Z" fill="white"/>
<path opacity="0.2" d="M333.881 514.548C332.62 514.032 331.359 513.483 330.097 512.922C331.359 513.483 332.61 514.032 333.881 514.548Z" fill="#E95329"/>
<path opacity="0.2" d="M346.127 518.926C345.22 518.652 344.323 518.338 343.416 518.042C344.323 518.338 345.211 518.652 346.127 518.926Z" fill="#E95329"/>
<path opacity="0.2" d="M359.819 522.328C358.467 522.075 357.147 521.711 355.795 521.413C357.147 521.721 358.467 522.066 359.819 522.328Z" fill="#E95329"/>
<path opacity="0.2" d="M322.914 509.445C321.032 508.471 319.154 507.487 317.294 506.421C319.14 507.474 321.01 508.484 322.914 509.445Z" fill="#E95329"/>
<path opacity="0.2" d="M300.07 494.795C298.982 493.96 297.892 493.145 296.813 492.275C297.87 493.145 298.991 493.947 300.07 494.795Z" fill="#E95329"/>
<path opacity="0.2" d="M270.972 463.895C270.609 463.361 270.201 462.828 269.847 462.295C270.211 462.842 270.596 463.361 270.972 463.895Z" fill="#E95329"/>
<path opacity="0.2" d="M249.714 415.394C249.278 413.426 248.83 411.465 248.485 409.461C248.853 411.465 249.265 413.436 249.714 415.394Z" fill="#E95329"/>
<path opacity="0.2" d="M257.215 438.965C257.102 438.704 257.011 438.445 256.909 438.185C257.011 438.445 257.112 438.704 257.215 438.965Z" fill="#E95329"/>
<path opacity="0.2" d="M252.805 426.963C252.486 425.944 252.187 424.915 251.888 423.882C252.197 424.915 252.486 425.944 252.805 426.963Z" fill="#E95329"/>
<path opacity="0.2" d="M312.536 503.523C310.368 502.168 308.213 500.786 306.081 499.295C308.181 500.772 310.345 502.158 312.536 503.523Z" fill="#E95329"/>
</svg>
