<svg width="23" height="22" viewBox="0 0 23 22" fill="none">
<path d="M21.6488 10.6252C21.6488 9.30987 20.5839 8.62085 19.1433 8.62085H14.9466C15.2598 7.49338 15.385 6.42855 15.385 5.48899C15.385 1.85602 14.3828 1.10437 13.5059 1.10437C12.9422 1.10437 12.5037 1.16701 11.94 1.48019C11.7521 1.60547 11.6894 1.73074 11.6268 1.91866L11.0004 5.30107C10.3114 7.05492 8.62021 8.62085 7.24219 9.68569V18.6428C7.74329 18.6428 8.24439 18.8934 8.87076 19.2066C9.55977 19.5198 10.2488 19.8956 11.0004 19.8956H16.951C18.2037 19.8956 19.1433 18.8934 19.1433 18.0165C19.1433 17.8285 19.1433 17.7033 19.0807 17.578C19.8323 17.2648 20.396 16.6384 20.396 15.8242C20.396 15.4483 20.3334 15.1351 20.2081 14.822C20.7092 14.5088 21.1477 13.945 21.1477 13.3187C21.1477 12.9428 20.9598 12.567 20.7719 12.2538C21.273 11.878 21.6488 11.2516 21.6488 10.6252ZM20.3334 10.6252C20.3334 11.4395 19.5191 11.5022 19.3938 11.878C19.2686 12.3165 19.8949 12.4417 19.8949 13.1934C19.8949 13.945 18.9554 13.945 18.8301 14.3835C18.7048 14.8846 19.1433 15.0099 19.1433 15.7615V15.8868C19.018 16.5132 18.0785 16.5758 17.8905 16.8263C17.7026 17.1395 17.8905 17.2648 17.8905 17.9538C17.8905 18.3296 17.4521 18.5802 16.951 18.5802H11.0004C10.4993 18.5802 9.99823 18.3296 9.37186 18.0165C8.87076 17.7659 8.36966 17.5154 7.86856 17.3901V10.8132C9.4345 9.62305 11.4389 7.86921 12.1905 5.6769V5.55162L12.7543 2.41975C13.0048 2.35712 13.1927 2.35712 13.5059 2.35712C13.6312 2.35712 14.1323 3.10877 14.1323 5.48899C14.1323 6.42855 13.9444 7.43074 13.6312 8.62085H13.5059C13.1301 8.62085 12.8796 8.8714 12.8796 9.24723C12.8796 9.62305 13.1301 9.8736 13.5059 9.8736H19.1433C19.7697 9.8736 20.3334 10.1868 20.3334 10.6252Z" fill="#838383"/>
<path fill-rule="evenodd" clip-rule="evenodd" d="M11.8882 1.38896C12.4719 1.06469 12.9293 1 13.5049 1C13.7394 1 13.9853 1.05042 14.2212 1.18852C14.457 1.3266 14.6767 1.54883 14.8643 1.88327C15.2376 2.54873 15.4884 3.66651 15.4884 5.48901C15.4884 6.40085 15.3715 7.42863 15.0821 8.51648H19.1422C19.8776 8.51648 20.5284 8.69214 20.9981 9.04647C21.4713 9.40347 21.7521 9.93584 21.7521 10.6253C21.7521 11.2592 21.3921 11.8836 20.9072 12.2796C21.0809 12.5801 21.251 12.9454 21.251 13.3187C21.251 13.9617 20.8248 14.5302 20.3347 14.8633C20.4445 15.1629 20.4994 15.4672 20.4994 15.8242C20.4994 16.6581 19.9448 17.297 19.213 17.6335C19.2467 17.7483 19.2466 17.8671 19.2466 18.0029L19.2466 18.0165C19.2466 18.4908 18.994 18.9868 18.5865 19.3617C18.1775 19.7381 17.6047 20 16.9499 20H10.9994C10.3233 20 9.69579 19.7067 9.09994 19.4283C9.00806 19.3853 8.91693 19.3427 8.82649 19.3016L8.82297 19.3C8.18927 18.9832 7.71237 18.7473 7.24111 18.7473H7.13672V9.63445L7.17728 9.60311C8.55106 8.54155 10.2183 6.99398 10.8985 5.2722L11.5257 1.88535C11.5579 1.78892 11.5936 1.70031 11.6485 1.61805C11.7042 1.53442 11.7774 1.46242 11.881 1.39336L11.8882 1.38896ZM11.9934 1.56939C11.9111 1.62475 11.8599 1.67735 11.8222 1.73387C11.7841 1.79108 11.7567 1.85684 11.727 1.94489L11.1002 5.32995L11.0965 5.33927C10.4032 7.10404 8.71812 8.67119 7.34551 9.7369V18.5418C7.83624 18.5731 8.32769 18.8189 8.89852 19.1043L8.91463 19.1124C9.00811 19.1549 9.1009 19.1981 9.19324 19.2411C9.79283 19.5206 10.3734 19.7912 10.9994 19.7912H16.9499C17.5479 19.7912 18.0713 19.552 18.4452 19.2081C18.8206 18.8626 19.0378 18.4191 19.0378 18.0165C19.0378 17.8231 19.0358 17.724 18.9862 17.6247L18.9362 17.5247L19.0394 17.4817C19.7653 17.1792 20.2906 16.5837 20.2906 15.8242C20.2906 15.4613 20.2304 15.1613 20.1101 14.8608L20.0777 14.7797L20.1517 14.7335C20.6342 14.4319 21.0422 13.897 21.0422 13.3187C21.0422 12.9738 20.8685 12.6196 20.6813 12.3076L20.6328 12.2268L20.7081 12.1703C21.1886 11.81 21.5433 11.2123 21.5433 10.6253C21.5433 9.99933 21.2917 9.5295 20.8723 9.21315C20.4494 8.89413 19.8475 8.72528 19.1422 8.72528H14.8082L14.8449 8.59294C15.1555 7.47483 15.2796 6.4194 15.2796 5.48901C15.2796 3.67855 15.0292 2.60402 14.6822 1.98542C14.5097 1.67782 14.3144 1.48507 14.1157 1.36869C13.917 1.25233 13.7088 1.20879 13.5049 1.20879C12.9542 1.20879 12.5353 1.2691 11.9934 1.56939ZM12.8438 2.50589L12.2939 5.56097V5.69432L12.2882 5.71078C11.5321 7.91619 9.53233 9.67492 7.97188 10.8649V17.3096C8.45747 17.4431 8.94024 17.6845 9.41149 17.9201L9.41747 17.9231C10.0512 18.24 10.5281 18.4758 10.9994 18.4758H16.9499C17.1845 18.4758 17.3991 18.4169 17.5516 18.3199C17.7034 18.2233 17.7851 18.0959 17.7851 17.9538C17.7851 17.681 17.7551 17.5023 17.7309 17.358C17.7254 17.3253 17.7202 17.2945 17.7158 17.2647C17.7036 17.1838 17.6959 17.1055 17.7067 17.0241C17.7177 16.9409 17.747 16.8609 17.7999 16.7727L17.8055 16.7634C17.8402 16.7172 17.8882 16.681 17.9376 16.6507C17.9875 16.6201 18.0452 16.5925 18.1051 16.5663C18.1555 16.5442 18.2101 16.5222 18.2652 16.4999C18.2755 16.4958 18.2858 16.4916 18.2962 16.4874C18.3624 16.4605 18.4296 16.4329 18.4959 16.4026C18.7637 16.2802 18.9825 16.1291 19.0378 15.876V15.7615C19.0378 15.4105 18.9372 15.2091 18.8453 15.0253L18.8428 15.0203C18.7491 14.833 18.6557 14.6463 18.7277 14.3582L18.7286 14.3548C18.7698 14.2105 18.8761 14.1108 18.9887 14.0325C19.0609 13.9824 19.1475 13.9338 19.2313 13.8869C19.2741 13.8629 19.3161 13.8393 19.3551 13.8161C19.5985 13.6716 19.7895 13.5108 19.7895 13.1934C19.7895 12.8531 19.6506 12.657 19.5141 12.4826C19.5048 12.4707 19.4953 12.4587 19.4857 12.4466C19.3602 12.2884 19.2181 12.1093 19.2924 11.8493L19.2936 11.845C19.3353 11.7199 19.4314 11.6295 19.5292 11.5551C19.5783 11.5179 19.6319 11.4817 19.6844 11.4462L19.6867 11.4447C19.7408 11.4081 19.7945 11.3719 19.8469 11.3326C19.9515 11.2541 20.0458 11.1673 20.1144 11.0567C20.1821 10.9475 20.2279 10.8101 20.2279 10.6253C20.2279 10.4558 20.1193 10.2965 19.918 10.1743C19.7176 10.0526 19.4395 9.97802 19.1422 9.97802H13.5049C13.2932 9.97802 13.1087 9.90702 12.9769 9.77519C12.8451 9.64336 12.7741 9.45889 12.7741 9.24725C12.7741 9.03562 12.8451 8.85114 12.9769 8.71931C13.1087 8.58748 13.2932 8.51648 13.5049 8.51648H13.5495C13.8496 7.36374 14.0268 6.39489 14.0268 5.48901C14.0268 4.30557 13.9022 3.53295 13.7648 3.0596C13.696 2.82265 13.6247 2.66325 13.5661 2.56549C13.5366 2.51633 13.5119 2.48559 13.4946 2.46861C13.4916 2.46563 13.489 2.46331 13.4869 2.46154C13.2129 2.46157 13.0448 2.46282 12.8438 2.50589ZM13.499 2.25275H13.5049C13.5377 2.25275 13.5653 2.26454 13.5847 2.27574C13.605 2.28748 13.6238 2.30286 13.6408 2.31956C13.6749 2.35299 13.71 2.39957 13.7451 2.45807C13.8156 2.57563 13.8931 2.7529 13.9653 3.00139C14.1097 3.49892 14.2356 4.29224 14.2356 5.48901C14.2356 6.44194 14.0451 7.45432 13.7311 8.64745L13.7106 8.72528H13.5049C13.3407 8.72528 13.212 8.77955 13.1245 8.86695C13.0371 8.95435 12.9829 9.08306 12.9829 9.24725C12.9829 9.41144 13.0371 9.54015 13.1245 9.62755C13.212 9.71496 13.3407 9.76923 13.5049 9.76923H19.1422C19.4713 9.76923 19.7882 9.85123 20.0263 9.99579C20.2635 10.1398 20.4367 10.3563 20.4367 10.6253C20.4367 10.8476 20.3807 11.0234 20.2919 11.1667C20.2039 11.3086 20.0867 11.4137 19.9722 11.4996C19.915 11.5425 19.857 11.5816 19.8035 11.6177C19.7491 11.6544 19.6998 11.6877 19.6556 11.7213C19.5665 11.7891 19.5139 11.8469 19.4925 11.909C19.4498 12.0619 19.524 12.1566 19.6663 12.3383C19.6703 12.3434 19.6744 12.3486 19.6785 12.3539C19.8239 12.5397 19.9983 12.7821 19.9983 13.1934C19.9983 13.6277 19.7194 13.8427 19.4617 13.9957C19.412 14.0252 19.3648 14.0516 19.32 14.0767C19.2428 14.1198 19.1725 14.1591 19.1078 14.204C19.0098 14.2721 18.9516 14.3364 18.9299 14.4106C18.878 14.62 18.9388 14.7455 19.032 14.9319C19.128 15.1238 19.2466 15.3611 19.2466 15.7615V15.8972L19.2446 15.9073C19.1711 16.2747 18.8596 16.4659 18.5827 16.5925C18.512 16.6248 18.4412 16.6539 18.3746 16.6809C18.3638 16.6853 18.3532 16.6896 18.3427 16.6938C18.2876 16.7161 18.2362 16.7368 18.1887 16.7576C18.1321 16.7823 18.0845 16.8056 18.0467 16.8288C18.011 16.8506 17.9887 16.8696 17.9759 16.8854C17.9371 16.9512 17.9201 17.0028 17.9137 17.0515C17.9068 17.1031 17.9109 17.158 17.9222 17.2337C17.9263 17.2606 17.9311 17.2894 17.9364 17.3206C17.9608 17.4656 17.9939 17.6622 17.9939 17.9538C17.9939 18.1876 17.8563 18.3734 17.6636 18.496C17.4716 18.6183 17.2164 18.6846 16.9499 18.6846H10.9994C10.4735 18.6846 9.95326 18.4245 9.34195 18.1188L9.3241 18.1099C8.82061 17.8581 8.33008 17.6134 7.84217 17.4914L7.76309 17.4716V10.7614L7.80432 10.7301C9.36596 9.54322 11.3402 7.81159 12.0851 5.65945V5.54233L12.6624 2.33487L12.7279 2.3185C12.9909 2.25274 13.1902 2.25274 13.499 2.25275Z" fill="#838383"/>
<path d="M6.6145 19.8956H2.85626C2.16725 19.8956 1.60352 19.3318 1.60352 18.6428V9.8736C1.60352 9.18459 2.16725 8.62085 2.85626 8.62085H6.6145C7.30351 8.62085 7.86725 9.18459 7.86725 9.8736V18.6428C7.86725 19.3318 7.30351 19.8956 6.6145 19.8956ZM2.85626 9.8736V18.6428H6.6145V9.8736H2.85626Z" fill="#838383"/>
<path fill-rule="evenodd" clip-rule="evenodd" d="M2.85714 8.72527C2.22579 8.72527 1.70879 9.24227 1.70879 9.87362V18.6429C1.70879 19.2742 2.22579 19.7912 2.85714 19.7912H6.61538C7.24674 19.7912 7.76374 19.2742 7.76374 18.6429V9.87362C7.76374 9.24227 7.24674 8.72527 6.61538 8.72527H2.85714ZM1.5 9.87362C1.5 9.12696 2.11048 8.51648 2.85714 8.51648H6.61538C7.36205 8.51648 7.97253 9.12696 7.97253 9.87362V18.6429C7.97253 19.3895 7.36205 20 6.61538 20H2.85714C2.11048 20 1.5 19.3895 1.5 18.6429V9.87362ZM2.75275 9.76923H6.71978V18.7472H2.75275V9.76923ZM2.96154 9.97802V18.5385H6.51099V9.97802H2.96154Z" fill="#838383"/>
</svg>
