<svg width="22" height="22" viewBox="0 0 22 22" fill="none" xmlns="http://www.w3.org/2000/svg">
<path d="M5.15625 20H3.96875L4.68125 19.05C5.15625 18.3969 5.45313 17.5656 5.63125 16.5562C2.6625 15.1906 1 12.6375 1 9.3125C1 4.20625 4.85938 1 11.0938 1C17.3281 1 21.1875 4.20625 21.1875 9.3125C21.1875 14.5375 17.3875 17.625 11.0938 17.625H10.6781C9.72812 18.7531 8.06562 20 5.15625 20ZM11.0938 2.1875C5.5125 2.1875 2.1875 4.85938 2.1875 9.3125C2.1875 13.1125 4.50313 14.8938 6.4625 15.6656L6.87812 15.8437L6.81875 16.3187C6.7 17.2687 6.52188 18.1 6.16563 18.8125C8.125 18.575 9.25312 17.5656 9.90625 16.7344L10.0844 16.4969H11.0938C19.1094 16.4969 20 11.5094 20 9.37188C20 4.85938 16.675 2.1875 11.0938 2.1875Z" fill="#838383" stroke="#838383" stroke-width="0.2"/>
</svg>
